<svg width="1116" height="135" viewBox="0 0 1116 135" fill="none" xmlns="http://www.w3.org/2000/svg">
<g filter="url(#filter0_d_10_43)">
<path d="M4.46591 99V5.90909H24.1477V46.9545H25.375L58.875 5.90909H82.4659L47.9205 47.5909L82.875 99H59.3295L33.8295 60.7273L24.1477 72.5455V99H4.46591ZM112.261 100.318C107.807 100.318 103.837 99.5455 100.352 98C96.8674 96.4242 94.1098 94.1061 92.0795 91.0455C90.0795 87.9545 89.0795 84.1061 89.0795 79.5C89.0795 75.6212 89.7917 72.3636 91.2159 69.7273C92.6402 67.0909 94.5795 64.9697 97.0341 63.3636C99.4886 61.7576 102.277 60.5455 105.398 59.7273C108.549 58.9091 111.852 58.3333 115.307 58C119.367 57.5758 122.64 57.1818 125.125 56.8182C127.61 56.4242 129.413 55.8485 130.534 55.0909C131.655 54.3333 132.216 53.2121 132.216 51.7273V51.4545C132.216 48.5758 131.307 46.3485 129.489 44.7727C127.701 43.197 125.155 42.4091 121.852 42.4091C118.367 42.4091 115.595 43.1818 113.534 44.7273C111.473 46.2424 110.11 48.1515 109.443 50.4545L91.5341 49C92.4432 44.7576 94.2311 41.0909 96.8977 38C99.5644 34.8788 103.004 32.4848 107.216 30.8182C111.458 29.1212 116.367 28.2727 121.943 28.2727C125.822 28.2727 129.534 28.7273 133.08 29.6364C136.655 30.5455 139.822 31.9545 142.58 33.8636C145.367 35.7727 147.564 38.2273 149.17 41.2273C150.777 44.197 151.58 47.7576 151.58 51.9091V99H133.216V89.3182H132.67C131.549 91.5 130.049 93.4242 128.17 95.0909C126.292 96.7273 124.034 98.0152 121.398 98.9545C118.761 99.8636 115.716 100.318 112.261 100.318ZM117.807 86.9545C120.655 86.9545 123.17 86.3939 125.352 85.2727C127.534 84.1212 129.246 82.5758 130.489 80.6364C131.731 78.697 132.352 76.5 132.352 74.0455V66.6364C131.746 67.0303 130.913 67.3939 129.852 67.7273C128.822 68.0303 127.655 68.3182 126.352 68.5909C125.049 68.8333 123.746 69.0606 122.443 69.2727C121.14 69.4545 119.958 69.6212 118.898 69.7727C116.625 70.1061 114.64 70.6364 112.943 71.3636C111.246 72.0909 109.928 73.0758 108.989 74.3182C108.049 75.5303 107.58 77.0455 107.58 78.8636C107.58 81.5 108.534 83.5152 110.443 84.9091C112.383 86.2727 114.837 86.9545 117.807 86.9545ZM166.602 99V29.1818H185.966V99H166.602ZM176.33 20.1818C173.451 20.1818 170.981 19.2273 168.92 17.3182C166.89 15.3788 165.875 13.0606 165.875 10.3636C165.875 7.69697 166.89 5.40909 168.92 3.5C170.981 1.5606 173.451 0.590904 176.33 0.590904C179.208 0.590904 181.663 1.5606 183.693 3.5C185.754 5.40909 186.784 7.69697 186.784 10.3636C186.784 13.0606 185.754 15.3788 183.693 17.3182C181.663 19.2273 179.208 20.1818 176.33 20.1818ZM198.295 22.1364V5.90909H274.75V22.1364H246.25V99H226.795V22.1364H198.295ZM316.966 99V5.90909H354.239C361.087 5.90909 366.799 6.92424 371.375 8.95454C375.951 10.9848 379.39 13.803 381.693 17.4091C383.996 20.9848 385.148 25.1061 385.148 29.7727C385.148 33.4091 384.42 36.6061 382.966 39.3636C381.511 42.0909 379.511 44.3333 376.966 46.0909C374.451 47.8182 371.572 49.0455 368.33 49.7727V50.6818C371.875 50.8333 375.193 51.8333 378.284 53.6818C381.405 55.5303 383.936 58.1212 385.875 61.4545C387.814 64.7576 388.784 68.697 388.784 73.2727C388.784 78.2121 387.557 82.6212 385.102 86.5C382.678 90.3485 379.087 93.3939 374.33 95.6364C369.572 97.8788 363.708 99 356.739 99H316.966ZM336.648 82.9091H352.693C358.178 82.9091 362.178 81.8636 364.693 79.7727C367.208 77.6515 368.466 74.8333 368.466 71.3182C368.466 68.7424 367.845 66.4697 366.602 64.5C365.36 62.5303 363.587 60.9848 361.284 59.8636C359.011 58.7424 356.299 58.1818 353.148 58.1818H336.648V82.9091ZM336.648 44.8636H351.239C353.936 44.8636 356.33 44.3939 358.42 43.4545C360.542 42.4848 362.208 41.1212 363.42 39.3636C364.663 37.6061 365.284 35.5 365.284 33.0455C365.284 29.6818 364.087 26.9697 361.693 24.9091C359.33 22.8485 355.966 21.8182 351.602 21.8182H336.648V44.8636ZM432.773 100.364C425.712 100.364 419.606 98.8636 414.455 95.8636C409.333 92.8333 405.379 88.6212 402.591 83.2273C399.803 77.803 398.409 71.5152 398.409 64.3636C398.409 57.1515 399.803 50.8485 402.591 45.4545C405.379 40.0303 409.333 35.8182 414.455 32.8182C419.606 29.7879 425.712 28.2727 432.773 28.2727C439.833 28.2727 445.924 29.7879 451.045 32.8182C456.197 35.8182 460.167 40.0303 462.955 45.4545C465.742 50.8485 467.136 57.1515 467.136 64.3636C467.136 71.5152 465.742 77.803 462.955 83.2273C460.167 88.6212 456.197 92.8333 451.045 95.8636C445.924 98.8636 439.833 100.364 432.773 100.364ZM432.864 85.3636C436.076 85.3636 438.758 84.4545 440.909 82.6364C443.061 80.7879 444.682 78.2727 445.773 75.0909C446.894 71.9091 447.455 68.2879 447.455 64.2273C447.455 60.1667 446.894 56.5455 445.773 53.3636C444.682 50.1818 443.061 47.6667 440.909 45.8182C438.758 43.9697 436.076 43.0455 432.864 43.0455C429.621 43.0455 426.894 43.9697 424.682 45.8182C422.5 47.6667 420.848 50.1818 419.727 53.3636C418.636 56.5455 418.091 60.1667 418.091 64.2273C418.091 68.2879 418.636 71.9091 419.727 75.0909C420.848 78.2727 422.5 80.7879 424.682 82.6364C426.894 84.4545 429.621 85.3636 432.864 85.3636ZM511.273 100.364C504.212 100.364 498.106 98.8636 492.955 95.8636C487.833 92.8333 483.879 88.6212 481.091 83.2273C478.303 77.803 476.909 71.5152 476.909 64.3636C476.909 57.1515 478.303 50.8485 481.091 45.4545C483.879 40.0303 487.833 35.8182 492.955 32.8182C498.106 29.7879 504.212 28.2727 511.273 28.2727C518.333 28.2727 524.424 29.7879 529.545 32.8182C534.697 35.8182 538.667 40.0303 541.455 45.4545C544.242 50.8485 545.636 57.1515 545.636 64.3636C545.636 71.5152 544.242 77.803 541.455 83.2273C538.667 88.6212 534.697 92.8333 529.545 95.8636C524.424 98.8636 518.333 100.364 511.273 100.364ZM511.364 85.3636C514.576 85.3636 517.258 84.4545 519.409 82.6364C521.561 80.7879 523.182 78.2727 524.273 75.0909C525.394 71.9091 525.955 68.2879 525.955 64.2273C525.955 60.1667 525.394 56.5455 524.273 53.3636C523.182 50.1818 521.561 47.6667 519.409 45.8182C517.258 43.9697 514.576 43.0455 511.364 43.0455C508.121 43.0455 505.394 43.9697 503.182 45.8182C501 47.6667 499.348 50.1818 498.227 53.3636C497.136 56.5455 496.591 60.1667 496.591 64.2273C496.591 68.2879 497.136 71.9091 498.227 75.0909C499.348 78.2727 501 80.7879 503.182 82.6364C505.394 84.4545 508.121 85.3636 511.364 85.3636ZM575.773 78.9091L575.818 55.6818H578.636L601 29.1818H623.227L593.182 64.2727H588.591L575.773 78.9091ZM558.227 99V5.90909H577.591V99H558.227ZM601.864 99L581.318 68.5909L594.227 54.9091L624.545 99H601.864ZM632.727 99V29.1818H652.091V99H632.727ZM642.455 20.1818C639.576 20.1818 637.106 19.2273 635.045 17.3182C633.015 15.3788 632 13.0606 632 10.3636C632 7.69697 633.015 5.40909 635.045 3.5C637.106 1.5606 639.576 0.590904 642.455 0.590904C645.333 0.590904 647.788 1.5606 649.818 3.5C651.879 5.40909 652.909 7.69697 652.909 10.3636C652.909 13.0606 651.879 15.3788 649.818 17.3182C647.788 19.2273 645.333 20.1818 642.455 20.1818ZM686.966 58.6364V99H667.602V29.1818H686.057V41.5H686.875C688.42 37.4394 691.011 34.2273 694.648 31.8636C698.284 29.4697 702.693 28.2727 707.875 28.2727C712.723 28.2727 716.951 29.3333 720.557 31.4545C724.163 33.5758 726.966 36.6061 728.966 40.5455C730.966 44.4545 731.966 49.1212 731.966 54.5455V99H712.602V58C712.633 53.7273 711.542 50.3939 709.33 48C707.117 45.5758 704.072 44.3636 700.193 44.3636C697.587 44.3636 695.284 44.9242 693.284 46.0455C691.314 47.1667 689.769 48.803 688.648 50.9545C687.557 53.0758 686.996 55.6364 686.966 58.6364ZM778.682 126.636C772.409 126.636 767.03 125.773 762.545 124.045C758.091 122.348 754.545 120.03 751.909 117.091C749.273 114.152 747.561 110.848 746.773 107.182L764.682 104.773C765.227 106.167 766.091 107.47 767.273 108.682C768.455 109.894 770.015 110.864 771.955 111.591C773.924 112.348 776.318 112.727 779.136 112.727C783.348 112.727 786.818 111.697 789.545 109.636C792.303 107.606 793.682 104.197 793.682 99.4091V86.6364H792.864C792.015 88.5758 790.742 90.4091 789.045 92.1364C787.348 93.8636 785.167 95.2727 782.5 96.3636C779.833 97.4545 776.652 98 772.955 98C767.712 98 762.939 96.7879 758.636 94.3636C754.364 91.9091 750.955 88.1667 748.409 83.1364C745.894 78.0758 744.636 71.6818 744.636 63.9545C744.636 56.0455 745.924 49.4394 748.5 44.1364C751.076 38.8333 754.5 34.8636 758.773 32.2273C763.076 29.5909 767.788 28.2727 772.909 28.2727C776.818 28.2727 780.091 28.9394 782.727 30.2727C785.364 31.5758 787.485 33.2121 789.091 35.1818C790.727 37.1212 791.985 39.0303 792.864 40.9091H793.591V29.1818H812.818V99.6818C812.818 105.621 811.364 110.591 808.455 114.591C805.545 118.591 801.515 121.591 796.364 123.591C791.242 125.621 785.348 126.636 778.682 126.636ZM779.091 83.4545C782.212 83.4545 784.848 82.6818 787 81.1364C789.182 79.5606 790.848 77.3182 792 74.4091C793.182 71.4697 793.773 67.9545 793.773 63.8636C793.773 59.7727 793.197 56.2273 792.045 53.2273C790.894 50.197 789.227 47.8485 787.045 46.1818C784.864 44.5151 782.212 43.6818 779.091 43.6818C775.909 43.6818 773.227 44.5455 771.045 46.2727C768.864 47.9697 767.212 50.3333 766.091 53.3636C764.97 56.3939 764.409 59.8939 764.409 63.8636C764.409 67.8939 764.97 71.3788 766.091 74.3182C767.242 77.2273 768.894 79.4848 771.045 81.0909C773.227 82.6667 775.909 83.4545 779.091 83.4545ZM910.727 38.5H890.818C890.455 35.9242 889.712 33.6364 888.591 31.6364C887.47 29.6061 886.03 27.8788 884.273 26.4545C882.515 25.0303 880.485 23.9394 878.182 23.1818C875.909 22.4242 873.439 22.0455 870.773 22.0455C865.955 22.0455 861.758 23.2424 858.182 25.6364C854.606 28 851.833 31.4545 849.864 36C847.894 40.5151 846.909 46 846.909 52.4545C846.909 59.0909 847.894 64.6667 849.864 69.1818C851.864 73.697 854.652 77.1061 858.227 79.4091C861.803 81.7121 865.939 82.8636 870.636 82.8636C873.273 82.8636 875.712 82.5152 877.955 81.8182C880.227 81.1212 882.242 80.1061 884 78.7727C885.758 77.4091 887.212 75.7576 888.364 73.8182C889.545 71.8788 890.364 69.6667 890.818 67.1818L910.727 67.2727C910.212 71.5455 908.924 75.6667 906.864 79.6364C904.833 83.5758 902.091 87.1061 898.636 90.2273C895.212 93.3182 891.121 95.7727 886.364 97.5909C881.636 99.3788 876.288 100.273 870.318 100.273C862.015 100.273 854.591 98.3939 848.045 94.6364C841.53 90.8788 836.379 85.4394 832.591 78.3182C828.833 71.197 826.955 62.5758 826.955 52.4545C826.955 42.303 828.864 33.6667 832.682 26.5455C836.5 19.4242 841.682 14 848.227 10.2727C854.773 6.51515 862.136 4.63636 870.318 4.63636C875.712 4.63636 880.712 5.39394 885.318 6.90909C889.955 8.42424 894.061 10.6364 897.636 13.5454C901.212 16.4242 904.121 19.9545 906.364 24.1364C908.636 28.3182 910.091 33.1061 910.727 38.5ZM944.386 100.318C939.932 100.318 935.962 99.5455 932.477 98C928.992 96.4242 926.235 94.1061 924.205 91.0455C922.205 87.9545 921.205 84.1061 921.205 79.5C921.205 75.6212 921.917 72.3636 923.341 69.7273C924.765 67.0909 926.705 64.9697 929.159 63.3636C931.614 61.7576 934.402 60.5455 937.523 59.7273C940.674 58.9091 943.977 58.3333 947.432 58C951.492 57.5758 954.765 57.1818 957.25 56.8182C959.735 56.4242 961.538 55.8485 962.659 55.0909C963.78 54.3333 964.341 53.2121 964.341 51.7273V51.4545C964.341 48.5758 963.432 46.3485 961.614 44.7727C959.826 43.197 957.28 42.4091 953.977 42.4091C950.492 42.4091 947.72 43.1818 945.659 44.7273C943.598 46.2424 942.235 48.1515 941.568 50.4545L923.659 49C924.568 44.7576 926.356 41.0909 929.023 38C931.689 34.8788 935.129 32.4848 939.341 30.8182C943.583 29.1212 948.492 28.2727 954.068 28.2727C957.947 28.2727 961.659 28.7273 965.205 29.6364C968.78 30.5455 971.947 31.9545 974.705 33.8636C977.492 35.7727 979.689 38.2273 981.295 41.2273C982.902 44.197 983.705 47.7576 983.705 51.9091V99H965.341V89.3182H964.795C963.674 91.5 962.174 93.4242 960.295 95.0909C958.417 96.7273 956.159 98.0152 953.523 98.9545C950.886 99.8636 947.841 100.318 944.386 100.318ZM949.932 86.9545C952.78 86.9545 955.295 86.3939 957.477 85.2727C959.659 84.1212 961.371 82.5758 962.614 80.6364C963.856 78.697 964.477 76.5 964.477 74.0455V66.6364C963.871 67.0303 963.038 67.3939 961.977 67.7273C960.947 68.0303 959.78 68.3182 958.477 68.5909C957.174 68.8333 955.871 69.0606 954.568 69.2727C953.265 69.4545 952.083 69.6212 951.023 69.7727C948.75 70.1061 946.765 70.6364 945.068 71.3636C943.371 72.0909 942.053 73.0758 941.114 74.3182C940.174 75.5303 939.705 77.0455 939.705 78.8636C939.705 81.5 940.659 83.5152 942.568 84.9091C944.508 86.2727 946.962 86.9545 949.932 86.9545ZM998.727 99V29.1818H1017.5V41.3636H1018.23C1019.5 37.0303 1021.64 33.7576 1024.64 31.5455C1027.64 29.303 1031.09 28.1818 1035 28.1818C1035.97 28.1818 1037.02 28.2424 1038.14 28.3636C1039.26 28.4848 1040.24 28.6515 1041.09 28.8636V46.0455C1040.18 45.7727 1038.92 45.5303 1037.32 45.3182C1035.71 45.1061 1034.24 45 1032.91 45C1030.06 45 1027.52 45.6212 1025.27 46.8636C1023.06 48.0758 1021.3 49.7727 1020 51.9545C1018.73 54.1364 1018.09 56.6515 1018.09 59.5V99H998.727ZM1079.67 100.364C1072.49 100.364 1066.31 98.9091 1061.12 96C1055.97 93.0606 1052 88.9091 1049.22 83.5455C1046.43 78.1515 1045.03 71.7727 1045.03 64.4091C1045.03 57.2273 1046.43 50.9242 1049.22 45.5C1052 40.0758 1055.93 35.8485 1060.99 32.8182C1066.08 29.7879 1072.05 28.2727 1078.9 28.2727C1083.5 28.2727 1087.79 29.0152 1091.76 30.5C1095.76 31.9545 1099.25 34.1515 1102.22 37.0909C1105.22 40.0303 1107.55 43.7273 1109.22 48.1818C1110.88 52.6061 1111.72 57.7879 1111.72 63.7273V69.0455H1052.76V57.0455H1093.49C1093.49 54.2576 1092.88 51.7879 1091.67 49.6364C1090.46 47.4848 1088.78 45.803 1086.62 44.5909C1084.5 43.3485 1082.03 42.7273 1079.22 42.7273C1076.28 42.7273 1073.67 43.4091 1071.4 44.7727C1069.16 46.1061 1067.4 47.9091 1066.12 50.1818C1064.85 52.4242 1064.2 54.9242 1064.17 57.6818V69.0909C1064.17 72.5455 1064.81 75.5303 1066.08 78.0455C1067.38 80.5606 1069.22 82.5 1071.58 83.8636C1073.94 85.2273 1076.75 85.9091 1079.99 85.9091C1082.14 85.9091 1084.11 85.6061 1085.9 85C1087.69 84.3939 1089.22 83.4848 1090.49 82.2727C1091.76 81.0606 1092.73 79.5758 1093.4 77.8182L1111.31 79C1110.4 83.303 1108.53 87.0606 1105.72 90.2727C1102.93 93.4545 1099.32 95.9394 1094.9 97.7273C1090.5 99.4848 1085.43 100.364 1079.67 100.364Z" fill="#FFD600" shape-rendering="crispEdges"/>
<path d="M4.46591 99H3.46591V100H4.46591V99ZM4.46591 5.90909V4.90909H3.46591V5.90909H4.46591ZM24.1477 5.90909H25.1477V4.90909H24.1477V5.90909ZM24.1477 46.9545H23.1477V47.9545H24.1477V46.9545ZM25.375 46.9545V47.9545H25.8496L26.1497 47.5868L25.375 46.9545ZM58.875 5.90909V4.90909H58.4004L58.1003 5.27679L58.875 5.90909ZM82.4659 5.90909L83.2359 6.54721L84.5935 4.90909H82.4659V5.90909ZM47.9205 47.5909L47.1505 46.9528L46.6708 47.5316L47.0935 48.1532L47.9205 47.5909ZM82.875 99V100H84.7642L83.702 98.4377L82.875 99ZM59.3295 99L58.4973 99.5545L58.7942 100H59.3295V99ZM33.8295 60.7273L34.6618 60.1728L33.9124 59.0481L33.056 60.0935L33.8295 60.7273ZM24.1477 72.5455L23.3742 71.9117L23.1477 72.1881V72.5455H24.1477ZM24.1477 99V100H25.1477V99H24.1477ZM5.46591 99V5.90909H3.46591V99H5.46591ZM4.46591 6.90909H24.1477V4.90909H4.46591V6.90909ZM23.1477 5.90909V46.9545H25.1477V5.90909H23.1477ZM24.1477 47.9545H25.375V45.9545H24.1477V47.9545ZM26.1497 47.5868L59.6497 6.54139L58.1003 5.27679L24.6003 46.3222L26.1497 47.5868ZM58.875 6.90909H82.4659V4.90909H58.875V6.90909ZM81.696 5.27097L47.1505 46.9528L48.6904 48.229L83.2359 6.54721L81.696 5.27097ZM47.0935 48.1532L82.048 99.5623L83.702 98.4377L48.7474 47.0286L47.0935 48.1532ZM82.875 98H59.3295V100H82.875V98ZM60.1618 98.4455L34.6618 60.1728L32.9973 61.2817L58.4973 99.5545L60.1618 98.4455ZM33.056 60.0935L23.3742 71.9117L24.9213 73.1792L34.6031 61.361L33.056 60.0935ZM23.1477 72.5455V99H25.1477V72.5455H23.1477ZM24.1477 98H4.46591V100H24.1477V98ZM100.352 98L99.9403 98.9112L99.9469 98.9141L100.352 98ZM92.0795 91.0455L91.2399 91.5887L91.2462 91.5982L92.0795 91.0455ZM91.2159 69.7273L90.3361 69.252L90.3361 69.252L91.2159 69.7273ZM97.0341 63.3636L96.4866 62.5268L96.4866 62.5268L97.0341 63.3636ZM105.398 59.7273L105.146 58.7594L105.144 58.76L105.398 59.7273ZM115.307 58L115.403 58.9954L115.411 58.9946L115.307 58ZM125.125 56.8182L125.27 57.8077L125.282 57.8058L125.125 56.8182ZM130.534 55.0909L129.974 54.2623L129.974 54.2623L130.534 55.0909ZM129.489 44.7727L128.827 45.523L128.834 45.5284L129.489 44.7727ZM113.534 44.7273L114.127 45.533L114.134 45.5273L113.534 44.7273ZM109.443 50.4545L109.362 51.4513L110.177 51.5174L110.404 50.7326L109.443 50.4545ZM91.5341 49L90.5563 48.7905L90.3176 49.9045L91.4531 49.9967L91.5341 49ZM96.8977 38L97.6549 38.6532L97.658 38.6496L96.8977 38ZM107.216 30.8182L107.584 31.748L107.587 31.7467L107.216 30.8182ZM133.08 29.6364L132.831 30.605L132.833 30.6055L133.08 29.6364ZM142.58 33.8636L142.01 34.6858L142.015 34.6887L142.58 33.8636ZM149.17 41.2273L148.289 41.6993L148.291 41.703L149.17 41.2273ZM151.58 99V100H152.58V99H151.58ZM133.216 99H132.216V100H133.216V99ZM133.216 89.3182H134.216V88.3182H133.216V89.3182ZM132.67 89.3182V88.3182H132.06L131.781 88.8611L132.67 89.3182ZM128.17 95.0909L128.827 95.845L128.834 95.839L128.17 95.0909ZM121.398 98.9545L121.724 99.9L121.733 99.8965L121.398 98.9545ZM125.352 85.2727L125.809 86.1622L125.819 86.1571L125.352 85.2727ZM130.489 80.6364L129.647 80.0969L129.647 80.0969L130.489 80.6364ZM132.352 66.6364H133.352V64.7937L131.807 65.7979L132.352 66.6364ZM129.852 67.7273L130.134 68.6866L130.143 68.684L130.152 68.6813L129.852 67.7273ZM126.352 68.5909L126.535 69.574L126.546 69.572L126.557 69.5697L126.352 68.5909ZM122.443 69.2727L122.581 70.2631L122.593 70.2616L122.604 70.2597L122.443 69.2727ZM118.898 69.7727L118.756 68.7828L118.753 68.7833L118.898 69.7727ZM112.943 71.3636L113.337 72.2828L113.337 72.2828L112.943 71.3636ZM108.989 74.3182L109.779 74.9308L109.786 74.9213L108.989 74.3182ZM110.443 84.9091L109.853 85.7167L109.861 85.722L109.868 85.7271L110.443 84.9091ZM112.261 99.3182C107.923 99.3182 104.095 98.566 100.758 97.0859L99.9469 98.9141C103.579 100.525 107.69 101.318 112.261 101.318V99.3182ZM100.764 97.0888C97.4433 95.5872 94.8348 93.3899 92.9129 90.4927L91.2462 91.5982C93.3849 94.8222 96.2915 97.2613 99.9403 98.9112L100.764 97.0888ZM92.9191 90.5022C91.0473 87.6094 90.0795 83.9616 90.0795 79.5H88.0795C88.0795 84.2505 89.1118 88.2997 91.24 91.5887L92.9191 90.5022ZM90.0795 79.5C90.0795 75.7397 90.7702 72.6562 92.0957 70.2026L90.3361 69.252C88.8131 72.0711 88.0795 75.5027 88.0795 79.5H90.0795ZM92.0957 70.2026C93.4427 67.7092 95.2692 65.7135 97.5816 64.2004L96.4866 62.5268C93.8898 64.2259 91.8376 66.4726 90.3361 69.252L92.0957 70.2026ZM97.5816 64.2004C99.9373 62.6591 102.624 61.4881 105.651 60.6946L105.144 58.76C101.929 59.6028 99.04 60.8561 96.4866 62.5268L97.5816 64.2004ZM105.649 60.6952C108.746 59.8911 111.997 59.324 115.403 58.9954L115.211 57.0046C111.707 57.3427 108.352 57.9271 105.146 58.7594L105.649 60.6952ZM115.411 58.9946C119.478 58.5697 122.766 58.1741 125.27 57.8076L124.98 55.8287C122.515 56.1895 119.257 56.5818 115.203 57.0054L115.411 58.9946ZM125.282 57.8058C127.808 57.4054 129.788 56.8022 131.094 55.9195L129.974 54.2623C129.038 54.8948 127.412 55.4431 124.968 55.8305L125.282 57.8058ZM131.094 55.9195C132.52 54.9556 133.216 53.5062 133.216 51.7273H131.216C131.216 52.918 130.79 53.711 129.974 54.2623L131.094 55.9195ZM133.216 51.7273V51.4545H131.216V51.7273H133.216ZM133.216 51.4545C133.216 48.3482 132.224 45.8202 130.144 44.017L128.834 45.5284C130.39 46.8768 131.216 48.8033 131.216 51.4545H133.216ZM130.15 44.0225C128.119 42.2329 125.305 41.4091 121.852 41.4091V43.4091C125.006 43.4091 127.282 44.161 128.827 45.5229L130.15 44.0225ZM121.852 41.4091C118.226 41.4091 115.22 42.213 112.934 43.9273L114.134 45.5273C115.97 44.1506 118.508 43.4091 121.852 43.4091V41.4091ZM112.942 43.9216C110.716 45.558 109.215 47.6472 108.483 50.1765L110.404 50.7326C111.005 48.6558 112.231 46.9269 114.126 45.5329L112.942 43.9216ZM109.524 49.4578L91.615 48.0033L91.4531 49.9967L109.362 51.4513L109.524 49.4578ZM92.5119 49.2095C93.3881 45.1205 95.1047 41.6091 97.6549 38.6532L96.1406 37.3468C93.3574 40.5727 91.4983 44.3946 90.5563 48.7905L92.5119 49.2095ZM97.658 38.6496C100.208 35.6648 103.507 33.361 107.584 31.748L106.848 29.8883C102.5 31.6087 98.9207 34.0927 96.1374 37.3504L97.658 38.6496ZM107.587 31.7467C111.689 30.1061 116.467 29.2727 121.943 29.2727V27.2727C116.267 27.2727 111.228 28.1363 106.845 29.8897L107.587 31.7467ZM121.943 29.2727C125.743 29.2727 129.372 29.7179 132.831 30.605L133.328 28.6677C129.697 27.7366 125.901 27.2727 121.943 27.2727V29.2727ZM132.833 30.6055C136.305 31.4882 139.36 32.851 142.01 34.6858L143.149 33.0414C140.284 31.0581 137.006 29.6027 133.326 28.6672L132.833 30.6055ZM142.015 34.6887C144.669 36.5065 146.758 38.8396 148.289 41.6992L150.052 40.7553C148.371 37.615 146.066 35.0389 143.145 33.0385L142.015 34.6887ZM148.291 41.703C149.802 44.4967 150.58 47.886 150.58 51.9091H152.58C152.58 47.6292 151.751 43.8973 150.05 40.7516L148.291 41.703ZM150.58 51.9091V99H152.58V51.9091H150.58ZM151.58 98H133.216V100H151.58V98ZM134.216 99V89.3182H132.216V99H134.216ZM133.216 88.3182H132.67V90.3182H133.216V88.3182ZM131.781 88.8611C130.718 90.9301 129.295 92.7564 127.507 94.3428L128.834 95.839C130.803 94.0921 132.381 92.0699 133.56 89.7753L131.781 88.8611ZM127.514 94.3368C125.74 95.8815 123.595 97.11 121.062 98.0126L121.733 99.8965C124.473 98.9203 126.843 97.573 128.827 95.845L127.514 94.3368ZM121.072 98.0092C118.562 98.8746 115.63 99.3182 112.261 99.3182V101.318C115.801 101.318 118.961 100.853 121.724 99.8999L121.072 98.0092ZM117.807 87.9545C120.789 87.9545 123.465 87.3669 125.809 86.1622L124.895 84.3833C122.876 85.421 120.522 85.9545 117.807 85.9545V87.9545ZM125.819 86.1571C128.142 84.9309 129.988 83.271 131.331 81.1758L129.647 80.0969C128.504 81.8805 126.926 83.3115 124.886 84.3883L125.819 86.1571ZM131.331 81.1758C132.683 79.0647 133.352 76.6781 133.352 74.0455H131.352C131.352 76.3219 130.779 78.3293 129.647 80.0969L131.331 81.1758ZM133.352 74.0455V66.6364H131.352V74.0455H133.352ZM131.807 65.7979C131.307 66.1234 130.568 66.4542 129.552 66.7733L130.152 68.6813C131.258 68.3337 132.186 67.9372 132.897 67.4748L131.807 65.7979ZM129.57 66.7679C128.57 67.0619 127.43 67.3436 126.147 67.6121L126.557 69.5697C127.88 69.2928 129.073 68.9987 130.134 68.6866L129.57 66.7679ZM126.169 67.6078C124.874 67.8488 123.578 68.0748 122.283 68.2857L122.604 70.2597C123.914 70.0464 125.225 69.8178 126.535 69.574L126.169 67.6078ZM122.305 68.2823C121.001 68.4643 119.818 68.6311 118.756 68.7828L119.039 70.7627C120.098 70.6113 121.279 70.4448 122.581 70.2631L122.305 68.2823ZM118.753 68.7833C116.414 69.1263 114.342 69.676 112.549 70.4445L113.337 72.2828C114.938 71.5967 116.836 71.0858 119.043 70.7621L118.753 68.7833ZM112.549 70.4445C110.722 71.2275 109.253 72.3103 108.191 73.7151L109.786 74.9213C110.603 73.8412 111.77 72.9543 113.337 72.2828L112.549 70.4445ZM108.198 73.7056C107.099 75.124 106.58 76.8663 106.58 78.8636H108.58C108.58 77.2246 109 75.9366 109.779 74.9308L108.198 73.7056ZM106.58 78.8636C106.58 81.7767 107.654 84.1108 109.853 85.7167L111.033 84.1015C109.414 82.9195 108.58 81.2233 108.58 78.8636H106.58ZM109.868 85.7271C112.014 87.2361 114.684 87.9545 117.807 87.9545V85.9545C114.991 85.9545 112.751 85.3094 111.018 84.0911L109.868 85.7271ZM166.602 99H165.602V100H166.602V99ZM166.602 29.1818V28.1818H165.602V29.1818H166.602ZM185.966 29.1818H186.966V28.1818H185.966V29.1818ZM185.966 99V100H186.966V99H185.966ZM168.92 17.3182L168.23 18.0413L168.235 18.0466L168.241 18.0517L168.92 17.3182ZM168.92 3.5L169.605 4.22852L169.606 4.2282L168.92 3.5ZM183.693 3.5L183.002 4.22311L183.008 4.22838L183.014 4.23356L183.693 3.5ZM183.693 17.3182L184.378 18.0467L184.379 18.0464L183.693 17.3182ZM167.602 99V29.1818H165.602V99H167.602ZM166.602 30.1818H185.966V28.1818H166.602V30.1818ZM184.966 29.1818V99H186.966V29.1818H184.966ZM185.966 98H166.602V100H185.966V98ZM176.33 19.1818C173.696 19.1818 171.471 18.3178 169.6 16.5846L168.241 18.0517C170.491 20.1368 173.206 21.1818 176.33 21.1818V19.1818ZM169.611 16.5951C167.769 14.8356 166.875 12.7751 166.875 10.3636H164.875C164.875 13.3461 166.011 15.9219 168.23 18.0413L169.611 16.5951ZM166.875 10.3636C166.875 7.98655 167.766 5.9582 169.605 4.22852L168.235 2.77148C166.014 4.85997 164.875 7.40738 164.875 10.3636H166.875ZM169.606 4.2282C171.477 2.46672 173.701 1.5909 176.33 1.5909V-0.409096C173.201 -0.409096 170.485 0.654481 168.235 2.7718L169.606 4.2282ZM176.33 1.5909C178.958 1.5909 181.163 2.46637 183.002 4.22311L184.384 2.77689C182.162 0.654835 179.458 -0.409096 176.33 -0.409096V1.5909ZM183.014 4.23356C184.882 5.96478 185.784 7.99173 185.784 10.3636H187.784C187.784 7.4022 186.625 4.8534 184.373 2.76644L183.014 4.23356ZM185.784 10.3636C185.784 12.77 184.879 14.8291 183.008 16.59L184.379 18.0464C186.629 15.9285 187.784 13.3512 187.784 10.3636H185.784ZM183.008 16.5897C181.17 18.3181 178.963 19.1818 176.33 19.1818V21.1818C179.454 21.1818 182.156 20.1364 184.378 18.0467L183.008 16.5897ZM198.295 22.1364H197.295V23.1364H198.295V22.1364ZM198.295 5.90909V4.90909H197.295V5.90909H198.295ZM274.75 5.90909H275.75V4.90909H274.75V5.90909ZM274.75 22.1364V23.1364H275.75V22.1364H274.75ZM246.25 22.1364V21.1364H245.25V22.1364H246.25ZM246.25 99V100H247.25V99H246.25ZM226.795 99H225.795V100H226.795V99ZM226.795 22.1364H227.795V21.1364H226.795V22.1364ZM199.295 22.1364V5.90909H197.295V22.1364H199.295ZM198.295 6.90909H274.75V4.90909H198.295V6.90909ZM273.75 5.90909V22.1364H275.75V5.90909H273.75ZM274.75 21.1364H246.25V23.1364H274.75V21.1364ZM245.25 22.1364V99H247.25V22.1364H245.25ZM246.25 98H226.795V100H246.25V98ZM227.795 99V22.1364H225.795V99H227.795ZM226.795 21.1364H198.295V23.1364H226.795V21.1364ZM316.966 99H315.966V100H316.966V99ZM316.966 5.90909V4.90909H315.966V5.90909H316.966ZM371.375 8.95454L370.969 9.8686L370.969 9.86861L371.375 8.95454ZM381.693 17.4091L380.85 17.9473L380.852 17.9506L381.693 17.4091ZM382.966 39.3636L383.848 39.8342L383.85 39.8302L382.966 39.3636ZM376.966 46.0909L377.532 46.9152L377.534 46.9138L376.966 46.0909ZM368.33 49.7727L368.111 48.797L367.33 48.9722V49.7727H368.33ZM368.33 50.6818H367.33V51.64L368.287 51.6809L368.33 50.6818ZM378.284 53.6818L377.771 54.5401L377.775 54.5422L378.284 53.6818ZM385.875 61.4545L385.011 61.9574L385.013 61.9609L385.875 61.4545ZM385.102 86.5L384.257 85.9653L384.256 85.967L385.102 86.5ZM374.33 95.6364L373.903 94.7318L373.903 94.7318L374.33 95.6364ZM336.648 82.9091H335.648V83.9091H336.648V82.9091ZM364.693 79.7727L365.332 80.5417L365.338 80.5372L364.693 79.7727ZM366.602 64.5L365.756 65.0335L365.756 65.0335L366.602 64.5ZM361.284 59.8636L360.842 60.7605L360.846 60.7627L361.284 59.8636ZM336.648 58.1818V57.1818H335.648V58.1818H336.648ZM336.648 44.8636H335.648V45.8636H336.648V44.8636ZM358.42 43.4545L358.83 44.3667L358.836 44.364L358.42 43.4545ZM363.42 39.3636L362.604 38.7864L362.597 38.7959L363.42 39.3636ZM361.693 24.9091L361.036 25.6629L361.041 25.667L361.693 24.9091ZM336.648 21.8182V20.8182H335.648V21.8182H336.648ZM317.966 99V5.90909H315.966V99H317.966ZM316.966 6.90909H354.239V4.90909H316.966V6.90909ZM354.239 6.90909C360.996 6.90909 366.559 7.91175 370.969 9.8686L371.781 8.04048C367.039 5.93673 361.178 4.90909 354.239 4.90909V6.90909ZM370.969 9.86861C375.397 11.8331 378.67 14.5333 380.85 17.9473L382.536 16.8708C380.11 13.0727 376.505 10.1366 371.781 8.04048L370.969 9.86861ZM380.852 17.9506C383.041 21.3493 384.148 25.2787 384.148 29.7727H386.148C386.148 24.9334 384.951 20.6204 382.534 16.8676L380.852 17.9506ZM384.148 29.7727C384.148 33.2736 383.448 36.3055 382.081 38.8971L383.85 39.8302C385.393 36.9066 386.148 33.5446 386.148 29.7727H384.148ZM382.084 38.893C380.704 41.4794 378.812 43.601 376.398 45.268L377.534 46.9138C380.211 45.0656 382.319 42.7024 383.848 39.8342L382.084 38.893ZM376.4 45.2666C373.999 46.9155 371.24 48.0951 368.111 48.797L368.548 50.7485C371.904 49.9958 374.903 48.7208 377.532 46.9152L376.4 45.2666ZM367.33 49.7727V50.6818H369.33V49.7727H367.33ZM368.287 51.6809C371.664 51.8252 374.82 52.7756 377.771 54.5401L378.797 52.8236C375.566 50.8911 372.086 49.8415 368.372 49.6827L368.287 51.6809ZM377.775 54.5422C380.74 56.2983 383.151 58.762 385.011 61.9574L386.739 60.9517C384.72 57.4804 382.071 54.7623 378.794 52.8214L377.775 54.5422ZM385.013 61.9609C386.846 65.0829 387.784 68.8402 387.784 73.2727H389.784C389.784 68.5537 388.783 64.4322 386.737 60.9482L385.013 61.9609ZM387.784 73.2727C387.784 78.0378 386.603 82.2587 384.257 85.9653L385.947 87.0347C388.511 82.9837 389.784 78.3864 389.784 73.2727H387.784ZM384.256 85.967C381.949 89.6302 378.516 92.5577 373.903 94.7318L374.756 96.5409C379.658 94.2302 383.407 91.0668 385.948 87.033L384.256 85.967ZM373.903 94.7318C369.315 96.8944 363.607 98 356.739 98V100C363.81 100 369.829 98.8631 374.756 96.5409L373.903 94.7318ZM356.739 98H316.966V100H356.739V98ZM336.648 83.9091H352.693V81.9091H336.648V83.9091ZM352.693 83.9091C358.266 83.9091 362.551 82.854 365.332 80.5417L364.054 79.0037C361.805 80.8733 358.09 81.9091 352.693 81.9091V83.9091ZM365.338 80.5372C368.095 78.2116 369.466 75.1051 369.466 71.3182H367.466C367.466 74.5616 366.321 77.0914 364.048 79.0083L365.338 80.5372ZM369.466 71.3182C369.466 68.5743 368.802 66.1126 367.448 63.9665L365.756 65.0335C366.888 66.8268 367.466 68.9105 367.466 71.3182H369.466ZM367.448 63.9665C366.097 61.8238 364.175 60.1588 361.722 58.9645L360.846 60.7627C362.999 61.8109 364.623 63.2368 365.756 65.0335L367.448 63.9665ZM361.727 58.9668C359.287 57.7632 356.416 57.1818 353.148 57.1818V59.1818C356.182 59.1818 358.736 59.7216 360.842 60.7604L361.727 58.9668ZM353.148 57.1818H336.648V59.1818H353.148V57.1818ZM335.648 58.1818V82.9091H337.648V58.1818H335.648ZM336.648 45.8636H351.239V43.8636H336.648V45.8636ZM351.239 45.8636C354.052 45.8636 356.59 45.3733 358.83 44.3667L358.011 42.5424C356.069 43.4146 353.819 43.8636 351.239 43.8636V45.8636ZM358.836 44.364C361.106 43.3264 362.92 41.8511 364.244 39.9314L362.597 38.7959C361.497 40.3913 359.977 41.6433 358.005 42.5451L358.836 44.364ZM364.237 39.9409C365.615 37.9914 366.284 35.6766 366.284 33.0455H364.284C364.284 35.3234 363.711 37.2207 362.604 38.7864L364.237 39.9409ZM366.284 33.0455C366.284 29.4121 364.976 26.4153 362.346 24.1512L361.041 25.667C363.198 27.5241 364.284 29.9515 364.284 33.0455H366.284ZM362.35 24.1553C359.744 21.8833 356.113 20.8182 351.602 20.8182V22.8182C355.819 22.8182 358.915 23.8136 361.036 25.6629L362.35 24.1553ZM351.602 20.8182H336.648V22.8182H351.602V20.8182ZM335.648 21.8182V44.8636H337.648V21.8182H335.648ZM414.455 95.8636L413.945 96.7243L413.951 96.7278L414.455 95.8636ZM402.591 83.2273L401.702 83.6844L401.703 83.6864L402.591 83.2273ZM402.591 45.4545L403.479 45.9137L403.48 45.9117L402.591 45.4545ZM414.455 32.8182L414.96 33.681L414.962 33.6801L414.455 32.8182ZM451.045 32.8182L450.536 33.6788L450.542 33.6823L451.045 32.8182ZM462.955 45.4545L462.065 45.9117L462.066 45.9137L462.955 45.4545ZM462.955 83.2273L463.843 83.6864L463.844 83.6844L462.955 83.2273ZM451.045 95.8636L451.551 96.7265L451.552 96.7256L451.045 95.8636ZM440.909 82.6364L441.555 83.4002L441.561 83.3949L440.909 82.6364ZM445.773 75.0909L444.83 74.7585L444.827 74.7666L445.773 75.0909ZM445.773 53.3636L444.827 53.688L444.83 53.696L445.773 53.3636ZM424.682 45.8182L424.041 45.0508L424.035 45.0552L424.682 45.8182ZM419.727 53.3636L418.784 53.0313L418.781 53.0393L419.727 53.3636ZM419.727 75.0909L418.781 75.4152L418.784 75.4233L419.727 75.0909ZM424.682 82.6364L424.035 83.3993L424.041 83.4042L424.047 83.4089L424.682 82.6364ZM432.773 99.3636C425.856 99.3636 419.93 97.8953 414.958 94.9995L413.951 96.7278C419.282 99.8319 425.568 101.364 432.773 101.364V99.3636ZM414.964 95.003C410.008 92.0703 406.183 87.9989 403.479 82.7681L401.703 83.6864C404.575 89.2435 408.659 93.5963 413.945 96.7243L414.964 95.003ZM403.48 82.7701C400.777 77.5098 399.409 71.3836 399.409 64.3636H397.409C397.409 71.6467 398.829 78.0962 401.702 83.6844L403.48 82.7701ZM399.409 64.3636C399.409 57.2814 400.777 51.1414 403.479 45.9137L401.703 44.9954C398.829 50.5556 397.409 57.0216 397.409 64.3636H399.409ZM403.48 45.9117C406.184 40.6515 410.007 36.5822 414.96 33.681L413.949 31.9553C408.659 35.0541 404.574 39.4091 401.702 44.9974L403.48 45.9117ZM414.962 33.6801C419.934 30.7554 425.858 29.2727 432.773 29.2727V27.2727C425.566 27.2727 419.279 28.8203 413.948 31.9562L414.962 33.6801ZM432.773 29.2727C439.688 29.2727 445.596 30.7555 450.536 33.6788L451.555 31.9576C446.253 28.8203 439.979 27.2727 432.773 27.2727V29.2727ZM450.542 33.6823C455.525 36.584 459.362 40.653 462.065 45.9117L463.844 44.9974C460.971 39.4076 456.869 35.0524 451.549 31.954L450.542 33.6823ZM462.066 45.9137C464.768 51.1414 466.136 57.2814 466.136 64.3636H468.136C468.136 57.0216 466.717 50.5556 463.843 44.9954L462.066 45.9137ZM466.136 64.3636C466.136 71.3836 464.769 77.5098 462.065 82.7701L463.844 83.6844C466.716 78.0962 468.136 71.6467 468.136 64.3636H466.136ZM462.066 82.7681C459.363 87.9973 455.525 92.0686 450.538 95.0017L451.552 96.7256C456.869 93.5981 460.97 89.2451 463.843 83.6864L462.066 82.7681ZM450.54 95.0008C445.599 97.8953 439.69 99.3636 432.773 99.3636V101.364C439.977 101.364 446.25 99.832 451.551 96.7265L450.54 95.0008ZM432.864 86.3636C436.277 86.3636 439.197 85.3921 441.555 83.4002L440.264 81.8726C438.318 83.517 435.875 84.3636 432.864 84.3636V86.3636ZM441.561 83.3949C443.87 81.4105 445.581 78.7339 446.719 75.4152L444.827 74.7666C443.783 77.8115 442.251 80.1653 440.257 81.8779L441.561 83.3949ZM446.716 75.4233C447.881 72.1154 448.455 68.3787 448.455 64.2273H446.455C446.455 68.197 445.906 71.7027 444.83 74.7586L446.716 75.4233ZM448.455 64.2273C448.455 60.0758 447.881 56.3391 446.716 53.0313L444.83 53.696C445.906 56.7518 446.455 60.2575 446.455 64.2273H448.455ZM446.719 53.0393C445.581 49.7206 443.87 47.044 441.561 45.0597L440.257 46.5767C442.251 48.2893 443.783 50.643 444.827 53.688L446.719 53.0393ZM441.561 45.0597C439.204 43.0347 436.281 42.0455 432.864 42.0455V44.0455C435.87 44.0455 438.311 44.9047 440.257 46.5767L441.561 45.0597ZM432.864 42.0455C429.418 42.0455 426.455 43.0332 424.041 45.0508L425.323 46.5855C427.333 44.9062 429.825 44.0455 432.864 44.0455V42.0455ZM424.035 45.0552C421.696 47.0375 419.954 49.7124 418.784 53.0313L420.67 53.696C421.743 50.6512 423.304 48.2958 425.328 46.5812L424.035 45.0552ZM418.781 53.0393C417.648 56.3446 417.091 60.0785 417.091 64.2273H419.091C419.091 60.2549 419.625 56.7463 420.673 53.688L418.781 53.0393ZM417.091 64.2273C417.091 68.3761 417.648 72.11 418.781 75.4152L420.673 74.7666C419.625 71.7082 419.091 68.1997 419.091 64.2273H417.091ZM418.784 75.4233C419.954 78.7421 421.696 81.4171 424.035 83.3993L425.328 81.8734C423.304 80.1587 421.743 77.8033 420.67 74.7586L418.784 75.4233ZM424.047 83.4089C426.461 85.3935 429.422 86.3636 432.864 86.3636V84.3636C429.82 84.3636 427.326 83.5156 425.317 81.8638L424.047 83.4089ZM492.955 95.8636L492.445 96.7243L492.451 96.7278L492.955 95.8636ZM481.091 83.2273L480.202 83.6844L480.203 83.6864L481.091 83.2273ZM481.091 45.4545L481.979 45.9137L481.98 45.9117L481.091 45.4545ZM492.955 32.8182L493.46 33.681L493.462 33.6801L492.955 32.8182ZM529.545 32.8182L529.036 33.6788L529.042 33.6823L529.545 32.8182ZM541.455 45.4545L540.565 45.9117L540.566 45.9137L541.455 45.4545ZM541.455 83.2273L542.343 83.6864L542.344 83.6844L541.455 83.2273ZM529.545 95.8636L530.051 96.7265L530.052 96.7256L529.545 95.8636ZM519.409 82.6364L520.055 83.4002L520.061 83.3949L519.409 82.6364ZM524.273 75.0909L523.33 74.7585L523.327 74.7666L524.273 75.0909ZM524.273 53.3636L523.327 53.688L523.33 53.696L524.273 53.3636ZM503.182 45.8182L502.541 45.0508L502.535 45.0552L503.182 45.8182ZM498.227 53.3636L497.284 53.0313L497.281 53.0393L498.227 53.3636ZM498.227 75.0909L497.281 75.4152L497.284 75.4233L498.227 75.0909ZM503.182 82.6364L502.535 83.3993L502.541 83.4042L502.547 83.4089L503.182 82.6364ZM511.273 99.3636C504.356 99.3636 498.43 97.8953 493.458 94.9995L492.451 96.7278C497.782 99.8319 504.068 101.364 511.273 101.364V99.3636ZM493.464 95.003C488.508 92.0703 484.683 87.9989 481.979 82.7681L480.203 83.6864C483.075 89.2435 487.159 93.5963 492.445 96.7243L493.464 95.003ZM481.98 82.7701C479.277 77.5098 477.909 71.3836 477.909 64.3636H475.909C475.909 71.6467 477.329 78.0962 480.202 83.6844L481.98 82.7701ZM477.909 64.3636C477.909 57.2814 479.277 51.1414 481.979 45.9137L480.203 44.9954C477.329 50.5556 475.909 57.0216 475.909 64.3636H477.909ZM481.98 45.9117C484.684 40.6515 488.507 36.5822 493.46 33.681L492.449 31.9553C487.159 35.0541 483.074 39.4091 480.202 44.9974L481.98 45.9117ZM493.462 33.6801C498.434 30.7554 504.358 29.2727 511.273 29.2727V27.2727C504.066 27.2727 497.779 28.8203 492.448 31.9562L493.462 33.6801ZM511.273 29.2727C518.188 29.2727 524.096 30.7555 529.036 33.6788L530.055 31.9576C524.753 28.8203 518.479 27.2727 511.273 27.2727V29.2727ZM529.042 33.6823C534.025 36.584 537.862 40.653 540.565 45.9117L542.344 44.9974C539.471 39.4076 535.369 35.0524 530.049 31.954L529.042 33.6823ZM540.566 45.9137C543.268 51.1414 544.636 57.2814 544.636 64.3636H546.636C546.636 57.0216 545.217 50.5556 542.343 44.9954L540.566 45.9137ZM544.636 64.3636C544.636 71.3836 543.269 77.5098 540.565 82.7701L542.344 83.6844C545.216 78.0962 546.636 71.6467 546.636 64.3636H544.636ZM540.566 82.7681C537.863 87.9973 534.025 92.0686 529.038 95.0017L530.052 96.7256C535.369 93.5981 539.47 89.2451 542.343 83.6864L540.566 82.7681ZM529.04 95.0008C524.099 97.8953 518.19 99.3636 511.273 99.3636V101.364C518.477 101.364 524.75 99.832 530.051 96.7265L529.04 95.0008ZM511.364 86.3636C514.777 86.3636 517.697 85.3921 520.055 83.4002L518.764 81.8726C516.818 83.517 514.375 84.3636 511.364 84.3636V86.3636ZM520.061 83.3949C522.37 81.4105 524.081 78.7339 525.219 75.4152L523.327 74.7666C522.283 77.8115 520.751 80.1653 518.757 81.8779L520.061 83.3949ZM525.216 75.4233C526.381 72.1154 526.955 68.3787 526.955 64.2273H524.955C524.955 68.197 524.406 71.7027 523.33 74.7586L525.216 75.4233ZM526.955 64.2273C526.955 60.0758 526.381 56.3391 525.216 53.0313L523.33 53.696C524.406 56.7518 524.955 60.2575 524.955 64.2273H526.955ZM525.219 53.0393C524.081 49.7206 522.37 47.044 520.061 45.0597L518.757 46.5767C520.751 48.2893 522.283 50.643 523.327 53.688L525.219 53.0393ZM520.061 45.0597C517.704 43.0347 514.781 42.0455 511.364 42.0455V44.0455C514.37 44.0455 516.811 44.9047 518.757 46.5767L520.061 45.0597ZM511.364 42.0455C507.918 42.0455 504.955 43.0332 502.541 45.0508L503.823 46.5855C505.833 44.9062 508.325 44.0455 511.364 44.0455V42.0455ZM502.535 45.0552C500.196 47.0375 498.454 49.7124 497.284 53.0313L499.17 53.696C500.243 50.6512 501.804 48.2958 503.828 46.5812L502.535 45.0552ZM497.281 53.0393C496.148 56.3446 495.591 60.0785 495.591 64.2273H497.591C497.591 60.2549 498.125 56.7463 499.173 53.688L497.281 53.0393ZM495.591 64.2273C495.591 68.3761 496.148 72.11 497.281 75.4152L499.173 74.7666C498.125 71.7082 497.591 68.1997 497.591 64.2273H495.591ZM497.284 75.4233C498.454 78.7421 500.196 81.4171 502.535 83.3993L503.828 81.8734C501.804 80.1587 500.243 77.8033 499.17 74.7586L497.284 75.4233ZM502.547 83.4089C504.961 85.3935 507.922 86.3636 511.364 86.3636V84.3636C508.32 84.3636 505.826 83.5156 503.817 81.8638L502.547 83.4089ZM575.773 78.9091L574.773 78.9071L574.768 81.5747L576.525 79.5679L575.773 78.9091ZM575.818 55.6818V54.6818H574.82L574.818 55.6799L575.818 55.6818ZM578.636 55.6818V56.6818H579.101L579.401 56.3268L578.636 55.6818ZM601 29.1818V28.1818H600.535L600.236 28.5369L601 29.1818ZM623.227 29.1818L623.987 29.8322L625.4 28.1818H623.227V29.1818ZM593.182 64.2727V65.2727H593.642L593.941 64.9231L593.182 64.2727ZM588.591 64.2727V63.2727H588.137L587.839 63.6139L588.591 64.2727ZM558.227 99H557.227V100H558.227V99ZM558.227 5.90909V4.90909H557.227V5.90909H558.227ZM577.591 5.90909H578.591V4.90909H577.591V5.90909ZM577.591 99V100H578.591V99H577.591ZM601.864 99L601.035 99.5598L601.332 100H601.864V99ZM581.318 68.5909L580.591 67.9046L580.041 68.4871L580.49 69.1507L581.318 68.5909ZM594.227 54.9091L595.051 54.3425L594.35 53.3222L593.5 54.2228L594.227 54.9091ZM624.545 99V100H626.447L625.369 98.4334L624.545 99ZM576.773 78.911L576.818 55.6838L574.818 55.6799L574.773 78.9071L576.773 78.911ZM575.818 56.6818H578.636V54.6818H575.818V56.6818ZM579.401 56.3268L601.764 29.8268L600.236 28.5369L577.872 55.0369L579.401 56.3268ZM601 30.1818H623.227V28.1818H601V30.1818ZM622.468 28.5314L592.422 63.6223L593.941 64.9231L623.987 29.8322L622.468 28.5314ZM593.182 63.2727H588.591V65.2727H593.182V63.2727ZM587.839 63.6139L575.02 78.2503L576.525 79.5679L589.343 64.9316L587.839 63.6139ZM559.227 99V5.90909H557.227V99H559.227ZM558.227 6.90909H577.591V4.90909H558.227V6.90909ZM576.591 5.90909V99H578.591V5.90909H576.591ZM577.591 98H558.227V100H577.591V98ZM602.692 98.4402L582.147 68.0311L580.49 69.1507L601.035 99.5598L602.692 98.4402ZM582.046 69.2772L594.955 55.5954L593.5 54.2228L580.591 67.9046L582.046 69.2772ZM593.403 55.4757L623.721 99.5666L625.369 98.4334L595.051 54.3425L593.403 55.4757ZM624.545 98H601.864V100H624.545V98ZM632.727 99H631.727V100H632.727V99ZM632.727 29.1818V28.1818H631.727V29.1818H632.727ZM652.091 29.1818H653.091V28.1818H652.091V29.1818ZM652.091 99V100H653.091V99H652.091ZM635.045 17.3182L634.355 18.0413L634.36 18.0466L634.366 18.0517L635.045 17.3182ZM635.045 3.5L635.73 4.22852L635.731 4.2282L635.045 3.5ZM649.818 3.5L649.127 4.22311L649.133 4.22838L649.139 4.23356L649.818 3.5ZM649.818 17.3182L650.503 18.0467L650.504 18.0464L649.818 17.3182ZM633.727 99V29.1818H631.727V99H633.727ZM632.727 30.1818H652.091V28.1818H632.727V30.1818ZM651.091 29.1818V99H653.091V29.1818H651.091ZM652.091 98H632.727V100H652.091V98ZM642.455 19.1818C639.821 19.1818 637.596 18.3178 635.725 16.5846L634.366 18.0517C636.616 20.1368 639.331 21.1818 642.455 21.1818V19.1818ZM635.736 16.5951C633.894 14.8356 633 12.7751 633 10.3636H631C631 13.3461 632.136 15.9219 634.355 18.0413L635.736 16.5951ZM633 10.3636C633 7.98655 633.891 5.9582 635.73 4.22852L634.36 2.77148C632.139 4.85997 631 7.40738 631 10.3636H633ZM635.731 4.2282C637.602 2.46672 639.826 1.5909 642.455 1.5909V-0.409096C639.326 -0.409096 636.61 0.654481 634.36 2.7718L635.731 4.2282ZM642.455 1.5909C645.083 1.5909 647.288 2.46637 649.127 4.22311L650.509 2.77689C648.287 0.654835 645.583 -0.409096 642.455 -0.409096V1.5909ZM649.139 4.23356C651.007 5.96478 651.909 7.99173 651.909 10.3636H653.909C653.909 7.4022 652.75 4.8534 650.498 2.76644L649.139 4.23356ZM651.909 10.3636C651.909 12.77 651.004 14.8291 649.133 16.59L650.504 18.0464C652.754 15.9285 653.909 13.3512 653.909 10.3636H651.909ZM649.133 16.5897C647.295 18.3181 645.088 19.1818 642.455 19.1818V21.1818C645.579 21.1818 648.281 20.1364 650.503 18.0467L649.133 16.5897ZM686.966 58.6364L685.966 58.6263V58.6364H686.966ZM686.966 99V100H687.966V99H686.966ZM667.602 99H666.602V100H667.602V99ZM667.602 29.1818V28.1818H666.602V29.1818H667.602ZM686.057 29.1818H687.057V28.1818H686.057V29.1818ZM686.057 41.5H685.057V42.5H686.057V41.5ZM686.875 41.5V42.5H687.564L687.81 41.8557L686.875 41.5ZM694.648 31.8636L695.193 32.7021L695.198 32.6989L694.648 31.8636ZM720.557 31.4545L721.064 30.5926L720.557 31.4545ZM728.966 40.5455L728.074 40.9981L728.076 41.0009L728.966 40.5455ZM731.966 99V100H732.966V99H731.966ZM712.602 99H711.602V100H712.602V99ZM712.602 58L711.602 57.9929V58H712.602ZM709.33 48L708.591 48.6741L708.595 48.6787L709.33 48ZM693.284 46.0455L692.795 45.1732L692.789 45.1764L693.284 46.0455ZM688.648 50.9545L687.761 50.4924L687.758 50.4972L688.648 50.9545ZM685.966 58.6364V99H687.966V58.6364H685.966ZM686.966 98H667.602V100H686.966V98ZM668.602 99V29.1818H666.602V99H668.602ZM667.602 30.1818H686.057V28.1818H667.602V30.1818ZM685.057 29.1818V41.5H687.057V29.1818H685.057ZM686.057 42.5H686.875V40.5H686.057V42.5ZM687.81 41.8557C689.28 37.9929 691.734 34.9499 695.193 32.7021L694.103 31.0252C690.288 33.5046 687.561 36.8859 685.94 41.1443L687.81 41.8557ZM695.198 32.6989C698.642 30.4315 702.851 29.2727 707.875 29.2727V27.2727C702.536 27.2727 697.926 28.5079 694.098 31.0284L695.198 32.6989ZM707.875 29.2727C712.574 29.2727 716.62 30.2992 720.05 32.3165L721.064 30.5926C717.281 28.3675 712.873 27.2727 707.875 27.2727V29.2727ZM720.05 32.3165C723.482 34.3353 726.156 37.2191 728.074 40.9981L729.858 40.0928C727.776 35.993 724.844 32.8162 721.064 30.5926L720.05 32.3165ZM728.076 41.0009C729.989 44.7397 730.966 49.243 730.966 54.5455H732.966C732.966 48.9994 731.943 44.1694 729.856 40.09L728.076 41.0009ZM730.966 54.5455V99H732.966V54.5455H730.966ZM731.966 98H712.602V100H731.966V98ZM713.602 99V58H711.602V99H713.602ZM713.602 58.0071C713.634 53.5616 712.497 49.954 710.064 47.3213L708.595 48.6787C710.587 50.8339 711.631 53.8929 711.602 57.9929L713.602 58.0071ZM710.068 47.3259C707.632 44.6561 704.297 43.3636 700.193 43.3636V45.3636C703.847 45.3636 706.603 46.4954 708.591 48.6741L710.068 47.3259ZM700.193 43.3636C697.44 43.3636 694.964 43.9573 692.795 45.1732L693.773 46.9177C695.604 45.8912 697.735 45.3636 700.193 45.3636V43.3636ZM692.789 45.1764C690.641 46.3995 688.964 48.1829 687.761 50.4924L689.535 51.4167C690.573 49.4231 691.988 47.9338 693.779 46.9145L692.789 45.1764ZM687.758 50.4972C686.58 52.7879 685.997 55.5097 685.966 58.6263L687.966 58.6465C687.995 55.763 688.533 53.3636 689.537 51.4119L687.758 50.4972ZM762.545 124.045L762.905 123.112L762.901 123.111L762.545 124.045ZM751.909 117.091L751.165 117.759L751.165 117.759L751.909 117.091ZM746.773 107.182L746.639 106.191L745.568 106.335L745.795 107.392L746.773 107.182ZM764.682 104.773L765.613 104.408L765.327 103.677L764.549 103.782L764.682 104.773ZM767.273 108.682L767.989 107.984L767.989 107.984L767.273 108.682ZM771.955 111.591L772.314 110.658L772.306 110.655L771.955 111.591ZM789.545 109.636L788.953 108.831L788.943 108.838L789.545 109.636ZM793.682 86.6364H794.682V85.6364H793.682V86.6364ZM792.864 86.6364V85.6364H792.21L791.947 86.2355L792.864 86.6364ZM789.045 92.1364L789.759 92.8372L789.759 92.8372L789.045 92.1364ZM758.636 94.3636L758.138 95.2308L758.146 95.2349L758.636 94.3636ZM748.409 83.1364L747.514 83.5814L747.517 83.5879L748.409 83.1364ZM748.5 44.1364L747.6 43.6995L747.6 43.6995L748.5 44.1364ZM758.773 32.2273L758.25 31.3746L758.248 31.3762L758.773 32.2273ZM782.727 30.2727L782.276 31.1651L782.284 31.1692L782.727 30.2727ZM789.091 35.1818L788.316 35.8138L788.321 35.8203L788.327 35.8267L789.091 35.1818ZM792.864 40.9091L791.958 41.3328L792.227 41.9091H792.864V40.9091ZM793.591 40.9091V41.9091H794.591V40.9091H793.591ZM793.591 29.1818V28.1818H792.591V29.1818H793.591ZM812.818 29.1818H813.818V28.1818H812.818V29.1818ZM808.455 114.591L807.646 114.003L807.646 114.003L808.455 114.591ZM796.364 123.591L796.002 122.659L795.995 122.661L796.364 123.591ZM787 81.1364L787.583 81.9486L787.585 81.947L787 81.1364ZM792 74.4091L791.072 74.036L791.07 74.041L792 74.4091ZM792.045 53.2273L791.111 53.5825L791.112 53.5856L792.045 53.2273ZM771.045 46.2727L771.659 47.0621L771.666 47.0568L771.045 46.2727ZM766.091 53.3636L767.029 53.7106L767.029 53.7106L766.091 53.3636ZM766.091 74.3182L765.157 74.6746L765.161 74.6862L766.091 74.3182ZM771.045 81.0909L770.447 81.8923L770.454 81.897L770.46 81.9016L771.045 81.0909ZM778.682 125.636C772.496 125.636 767.246 124.784 762.905 123.112L762.186 124.979C766.815 126.761 772.322 127.636 778.682 127.636V125.636ZM762.901 123.111C758.565 121.459 755.164 119.222 752.654 116.423L751.165 117.759C753.927 120.839 757.617 123.238 762.189 124.98L762.901 123.111ZM752.654 116.423C750.127 113.606 748.5 110.459 747.75 106.972L745.795 107.392C746.621 111.238 748.418 114.697 751.165 117.759L752.654 116.423ZM746.906 108.173L764.815 105.764L764.549 103.782L746.639 106.191L746.906 108.173ZM763.751 105.137C764.351 106.671 765.294 108.085 766.557 109.38L767.989 107.984C766.888 106.855 766.104 105.662 765.613 104.408L763.751 105.137ZM766.557 109.38C767.862 110.718 769.557 111.76 771.603 112.527L772.306 110.655C770.474 109.968 769.048 109.07 767.989 107.984L766.557 109.38ZM771.596 112.524C773.711 113.338 776.234 113.727 779.136 113.727V111.727C776.402 111.727 774.137 111.359 772.314 110.658L771.596 112.524ZM779.136 113.727C783.514 113.727 787.21 112.654 790.148 110.434L788.943 108.838C786.426 110.74 783.182 111.727 779.136 111.727V113.727ZM790.138 110.442C793.244 108.155 794.682 104.38 794.682 99.4091H792.682C792.682 104.014 791.362 107.057 788.953 108.831L790.138 110.442ZM794.682 99.4091V86.6364H792.682V99.4091H794.682ZM793.682 85.6364H792.864V87.6364H793.682V85.6364ZM791.947 86.2355C791.154 88.0486 789.956 89.7827 788.332 91.4355L789.759 92.8372C791.529 91.0354 792.876 89.1029 793.78 87.0372L791.947 86.2355ZM788.332 91.4355C786.747 93.0494 784.686 94.389 782.121 95.4381L782.879 97.2892C785.648 96.1565 787.95 94.6779 789.759 92.8372L788.332 91.4355ZM782.121 95.4381C779.604 96.4681 776.557 97 772.955 97V99C776.746 99 780.063 98.441 782.879 97.2892L782.121 95.4381ZM772.955 97C767.873 97 763.271 95.827 759.127 93.4924L758.146 95.2349C762.608 97.7487 767.551 99 772.955 99V97ZM759.134 93.4965C755.054 91.1526 751.772 87.5669 749.301 82.6849L747.517 83.5879C750.137 88.7664 753.673 92.6656 758.138 95.2307L759.134 93.4965ZM749.305 82.6913C746.879 77.8102 745.636 71.5811 745.636 63.9545H743.636C743.636 71.7825 744.909 78.3413 747.514 83.5814L749.305 82.6913ZM745.636 63.9545C745.636 56.1476 746.908 49.7019 749.4 44.5733L747.6 43.6995C744.94 49.1769 743.636 55.9433 743.636 63.9545H745.636ZM749.4 44.5733C751.907 39.4108 755.213 35.5987 759.298 33.0783L758.248 31.3762C753.787 34.1286 750.245 38.2559 747.6 43.6995L749.4 44.5733ZM759.295 33.08C763.439 30.5414 767.969 29.2727 772.909 29.2727V27.2727C767.606 27.2727 762.713 28.6404 758.25 31.3746L759.295 33.08ZM772.909 29.2727C776.71 29.2727 779.817 29.9216 782.276 31.1651L783.179 29.3804C780.365 27.9572 776.926 27.2727 772.909 27.2727V29.2727ZM782.284 31.1692C784.812 32.4187 786.813 33.9711 788.316 35.8138L789.866 34.5499C788.156 32.4531 785.915 30.7328 783.17 29.3762L782.284 31.1692ZM788.327 35.8267C789.918 37.7133 791.123 39.549 791.958 41.3328L793.769 40.4854C792.846 38.5116 791.536 36.5292 789.855 34.5369L788.327 35.8267ZM792.864 41.9091H793.591V39.9091H792.864V41.9091ZM794.591 40.9091V29.1818H792.591V40.9091H794.591ZM793.591 30.1818H812.818V28.1818H793.591V30.1818ZM811.818 29.1818V99.6818H813.818V29.1818H811.818ZM811.818 99.6818C811.818 105.453 810.407 110.206 807.646 114.003L809.263 115.179C812.32 110.976 813.818 105.789 813.818 99.6818H811.818ZM807.646 114.003C804.863 117.83 800.996 120.72 796.002 122.659L796.726 124.523C802.034 122.462 806.228 119.352 809.263 115.179L807.646 114.003ZM795.995 122.661C791.013 124.636 785.248 125.636 778.682 125.636V127.636C785.449 127.636 791.472 126.606 796.732 124.521L795.995 122.661ZM779.091 84.4545C782.383 84.4545 785.233 83.6368 787.583 81.9485L786.417 80.3242C784.464 81.7269 782.041 82.4545 779.091 82.4545V84.4545ZM787.585 81.947C789.946 80.2424 791.72 77.8342 792.93 74.7771L791.07 74.041C789.977 76.8022 788.418 78.8788 786.415 80.3257L787.585 81.947ZM792.928 74.7821C794.169 71.6951 794.773 68.0468 794.773 63.8636H792.773C792.773 67.8622 792.195 71.2443 791.072 74.0361L792.928 74.7821ZM794.773 63.8636C794.773 59.6822 794.185 56.0098 792.979 52.8689L791.112 53.5856C792.209 56.4448 792.773 59.8632 792.773 63.8636H794.773ZM792.98 52.8721C791.775 49.6995 790.007 47.186 787.652 45.3871L786.438 46.9765C788.447 48.511 790.013 50.6945 791.111 53.5825L792.98 52.8721ZM787.652 45.3871C785.273 43.5694 782.4 42.6818 779.091 42.6818V44.6818C782.024 44.6818 784.454 45.4609 786.438 46.9765L787.652 45.3871ZM779.091 42.6818C775.718 42.6818 772.808 43.6018 770.425 45.4887L771.666 47.0568C773.646 45.4891 776.1 44.6818 779.091 44.6818V42.6818ZM770.432 45.4834C768.079 47.3129 766.328 49.8416 765.153 53.0166L767.029 53.7106C768.096 50.8251 769.648 48.6265 771.659 47.0621L770.432 45.4834ZM765.153 53.0166C763.983 56.1801 763.409 59.8017 763.409 63.8636H765.409C765.409 59.9862 765.957 56.6077 767.029 53.7106L765.153 53.0166ZM763.409 63.8636C763.409 67.9831 763.982 71.5944 765.157 74.6746L767.025 73.9618C765.958 71.1632 765.409 67.8048 765.409 63.8636H763.409ZM765.161 74.6862C766.369 77.7387 768.124 80.158 770.447 81.8923L771.644 80.2896C769.664 78.8117 768.115 76.7158 767.021 73.9501L765.161 74.6862ZM770.46 81.9016C772.842 83.6216 775.738 84.4545 779.091 84.4545V82.4545C776.08 82.4545 773.613 81.7117 771.631 80.2802L770.46 81.9016ZM910.727 38.5V39.5H911.852L911.72 38.3828L910.727 38.5ZM890.818 38.5L889.828 38.6398L889.949 39.5H890.818V38.5ZM888.591 31.6364L887.716 32.1198L887.719 32.1254L888.591 31.6364ZM884.273 26.4545L883.643 27.2315L883.643 27.2315L884.273 26.4545ZM878.182 23.1818L877.866 24.1305L877.869 24.1317L878.182 23.1818ZM858.182 25.6364L858.733 26.4706L858.738 26.4673L858.182 25.6364ZM849.864 36L850.78 36.3999L850.781 36.3976L849.864 36ZM849.864 69.1818L848.947 69.5817L848.949 69.5868L849.864 69.1818ZM858.227 79.4091L857.686 80.2498L857.686 80.2498L858.227 79.4091ZM877.955 81.8182L877.661 80.8621L877.658 80.8632L877.955 81.8182ZM884 78.7727L884.604 79.5695L884.613 79.5628L884 78.7727ZM888.364 73.8182L887.51 73.2978L887.504 73.3076L888.364 73.8182ZM890.818 67.1818L890.823 66.1818L889.985 66.178L889.835 67.0019L890.818 67.1818ZM910.727 67.2727L911.72 67.3924L911.854 66.2779L910.732 66.2727L910.727 67.2727ZM906.864 79.6364L905.976 79.1756L905.975 79.1782L906.864 79.6364ZM898.636 90.2273L899.306 90.9696L899.307 90.9693L898.636 90.2273ZM886.364 97.5909L886.717 98.5263L886.721 98.525L886.364 97.5909ZM848.045 94.6364L847.546 95.5026L847.548 95.5036L848.045 94.6364ZM832.591 78.3182L831.706 78.7849L831.708 78.7878L832.591 78.3182ZM832.682 26.5455L833.563 27.018L833.563 27.018L832.682 26.5455ZM848.227 10.2727L848.722 11.1417L848.725 11.14L848.227 10.2727ZM885.318 6.90909L885.006 7.85902L885.008 7.85962L885.318 6.90909ZM897.636 13.5454L897.005 14.3212L897.009 14.3244L897.636 13.5454ZM906.364 24.1364L905.482 24.6089L905.485 24.6139L906.364 24.1364ZM910.727 37.5H890.818V39.5H910.727V37.5ZM891.808 38.3602C891.43 35.6781 890.653 33.269 889.463 31.1474L887.719 32.1254C888.772 34.0037 889.479 36.1704 889.828 38.6398L891.808 38.3602ZM889.466 31.1529C888.284 29.0128 886.763 27.185 884.902 25.6776L883.643 27.2315C885.298 28.5726 886.655 30.1993 887.716 32.1198L889.466 31.1529ZM884.902 25.6776C883.044 24.1716 880.904 23.0247 878.494 22.2319L877.869 24.1317C880.065 24.8541 881.986 25.889 883.643 27.2315L884.902 25.6776ZM878.498 22.2331C876.113 21.438 873.535 21.0455 870.773 21.0455V23.0455C873.344 23.0455 875.706 23.4105 877.866 24.1305L878.498 22.2331ZM870.773 21.0455C865.781 21.0455 861.385 22.2883 857.625 24.8054L858.738 26.4673C862.13 24.1965 866.128 23.0455 870.773 23.0455V21.0455ZM857.63 24.8021C853.869 27.2886 850.981 30.9074 848.946 35.6024L850.781 36.3976C852.686 32.0017 855.343 28.7114 858.733 26.4706L857.63 24.8021ZM848.947 35.6001C846.908 40.274 845.909 45.9031 845.909 52.4545H847.909C847.909 46.0969 848.88 40.7563 850.78 36.3999L848.947 35.6001ZM845.909 52.4545C845.909 59.1834 846.907 64.9047 848.947 69.5817L850.78 68.782C848.881 64.4286 847.909 58.9984 847.909 52.4545H845.909ZM848.949 69.5868C851.015 74.2511 853.921 77.8249 857.686 80.2498L858.769 78.5684C855.382 76.3872 852.712 73.1429 850.778 68.7768L848.949 69.5868ZM857.686 80.2498C861.44 82.6675 865.768 83.8636 870.636 83.8636V81.8636C866.111 81.8636 862.166 80.7567 858.769 78.5684L857.686 80.2498ZM870.636 83.8636C873.361 83.8636 875.902 83.5034 878.251 82.7731L877.658 80.8632C875.522 81.5269 873.184 81.8636 870.636 81.8636V83.8636ZM878.248 82.7742C880.624 82.0455 882.746 80.9791 884.604 79.5694L883.396 77.976C881.739 79.2331 879.831 80.1969 877.661 80.8621L878.248 82.7742ZM884.613 79.5628C886.471 78.1212 888.009 76.3744 889.223 74.3287L887.504 73.3076C886.415 75.1407 885.044 76.697 883.387 77.9826L884.613 79.5628ZM889.218 74.3386C890.47 72.2835 891.328 69.9536 891.802 67.3618L889.835 67.0019C889.4 69.3797 888.621 71.4741 887.51 73.2978L889.218 74.3386ZM890.814 68.1818L910.723 68.2727L910.732 66.2727L890.823 66.1818L890.814 68.1818ZM909.734 67.153C909.234 71.302 907.984 75.3082 905.976 79.1757L907.751 80.0971C909.865 76.0252 911.19 71.7889 911.72 67.3924L909.734 67.153ZM905.975 79.1782C904.002 83.0053 901.336 86.4406 897.966 89.4853L899.307 90.9693C902.846 87.7715 905.664 84.1462 907.753 80.0945L905.975 79.1782ZM897.966 89.485C894.643 92.485 890.661 94.8781 886.007 96.6568L886.721 98.525C891.582 96.6674 895.781 94.1514 899.306 90.9696L897.966 89.485ZM886.01 96.6556C881.414 98.3937 876.188 99.2727 870.318 99.2727V101.273C876.387 101.273 881.859 100.364 886.717 98.5262L886.01 96.6556ZM870.318 99.2727C862.172 99.2727 854.922 97.4312 848.543 93.7691L847.548 95.5036C854.259 99.3567 861.858 101.273 870.318 101.273V99.2727ZM848.545 93.7701C842.204 90.113 837.18 84.8167 833.474 77.8486L831.708 78.7878C835.577 86.062 840.856 91.6445 847.546 95.5026L848.545 93.7701ZM833.475 77.8515C829.811 70.9064 827.955 62.454 827.955 52.4545H825.955C825.955 62.6975 827.856 71.4875 831.706 78.7849L833.475 77.8515ZM827.955 52.4545C827.955 42.4265 829.84 33.9613 833.563 27.018L831.801 26.0729C827.887 33.372 825.955 42.1796 825.955 52.4545H827.955ZM833.563 27.018C837.299 20.0501 842.352 14.769 848.722 11.1417L847.732 9.40374C841.011 13.231 835.701 18.7984 831.801 26.0729L833.563 27.018ZM848.725 11.14C855.106 7.47662 862.296 5.63636 870.318 5.63636V3.63636C861.977 3.63636 854.439 5.55368 847.729 9.40548L848.725 11.14ZM870.318 5.63636C875.618 5.63636 880.511 6.38054 885.006 7.85901L885.631 5.95916C880.913 4.40734 875.806 3.63636 870.318 3.63636V5.63636ZM885.008 7.85962C889.534 9.33889 893.53 11.4939 897.005 14.3212L898.267 12.7697C894.591 9.77878 890.375 7.50959 885.629 5.95856L885.008 7.85962ZM897.009 14.3244C900.477 17.1163 903.301 20.5412 905.482 24.6089L907.245 23.6638C904.941 19.3679 901.947 15.7322 898.263 12.7665L897.009 14.3244ZM905.485 24.6139C907.689 28.6693 909.111 33.3318 909.734 38.6172L911.72 38.3828C911.071 32.8803 909.584 27.9671 907.242 23.6588L905.485 24.6139ZM932.477 98L932.065 98.9112L932.072 98.9141L932.477 98ZM924.205 91.0455L923.365 91.5887L923.371 91.5982L924.205 91.0455ZM923.341 69.7273L922.461 69.252L922.461 69.252L923.341 69.7273ZM929.159 63.3636L928.612 62.5268L928.612 62.5268L929.159 63.3636ZM937.523 59.7273L937.271 58.7594L937.269 58.76L937.523 59.7273ZM947.432 58L947.528 58.9954L947.536 58.9946L947.432 58ZM957.25 56.8182L957.395 57.8077L957.407 57.8058L957.25 56.8182ZM962.659 55.0909L962.099 54.2623L962.099 54.2623L962.659 55.0909ZM961.614 44.7727L960.952 45.523L960.959 45.5284L961.614 44.7727ZM945.659 44.7273L946.252 45.533L946.259 45.5273L945.659 44.7273ZM941.568 50.4545L941.487 51.4513L942.302 51.5174L942.529 50.7326L941.568 50.4545ZM923.659 49L922.681 48.7905L922.443 49.9045L923.578 49.9967L923.659 49ZM929.023 38L929.78 38.6532L929.783 38.6496L929.023 38ZM939.341 30.8182L939.709 31.748L939.712 31.7467L939.341 30.8182ZM965.205 29.6364L964.956 30.605L964.958 30.6055L965.205 29.6364ZM974.705 33.8636L974.135 34.6858L974.14 34.6887L974.705 33.8636ZM981.295 41.2273L980.414 41.6993L980.416 41.703L981.295 41.2273ZM983.705 99V100H984.705V99H983.705ZM965.341 99H964.341V100H965.341V99ZM965.341 89.3182H966.341V88.3182H965.341V89.3182ZM964.795 89.3182V88.3182H964.185L963.906 88.8611L964.795 89.3182ZM960.295 95.0909L960.952 95.845L960.959 95.839L960.295 95.0909ZM953.523 98.9545L953.849 99.9L953.858 99.8965L953.523 98.9545ZM957.477 85.2727L957.934 86.1622L957.944 86.1571L957.477 85.2727ZM962.614 80.6364L961.772 80.0969L961.772 80.0969L962.614 80.6364ZM964.477 66.6364H965.477V64.7937L963.932 65.7979L964.477 66.6364ZM961.977 67.7273L962.259 68.6866L962.268 68.684L962.277 68.6813L961.977 67.7273ZM958.477 68.5909L958.66 69.574L958.671 69.572L958.682 69.5697L958.477 68.5909ZM954.568 69.2727L954.706 70.2631L954.718 70.2616L954.729 70.2597L954.568 69.2727ZM951.023 69.7727L950.881 68.7828L950.878 68.7833L951.023 69.7727ZM945.068 71.3636L945.462 72.2828L945.462 72.2828L945.068 71.3636ZM941.114 74.3182L941.904 74.9308L941.911 74.9213L941.114 74.3182ZM942.568 84.9091L941.978 85.7167L941.986 85.722L941.993 85.7271L942.568 84.9091ZM944.386 99.3182C940.048 99.3182 936.22 98.566 932.883 97.0859L932.072 98.9141C935.704 100.525 939.815 101.318 944.386 101.318V99.3182ZM932.889 97.0888C929.568 95.5872 926.96 93.3899 925.038 90.4927L923.371 91.5982C925.51 94.8222 928.417 97.2613 932.065 98.9112L932.889 97.0888ZM925.044 90.5022C923.172 87.6094 922.205 83.9616 922.205 79.5H920.205C920.205 84.2505 921.237 88.2997 923.365 91.5887L925.044 90.5022ZM922.205 79.5C922.205 75.7397 922.895 72.6562 924.221 70.2026L922.461 69.252C920.938 72.0711 920.205 75.5027 920.205 79.5H922.205ZM924.221 70.2026C925.568 67.7092 927.394 65.7135 929.707 64.2004L928.612 62.5268C926.015 64.2259 923.963 66.4726 922.461 69.252L924.221 70.2026ZM929.707 64.2004C932.062 62.6591 934.749 61.4881 937.776 60.6946L937.269 58.76C934.054 59.6028 931.165 60.8561 928.612 62.5268L929.707 64.2004ZM937.774 60.6952C940.871 59.8911 944.122 59.324 947.528 58.9954L947.336 57.0046C943.832 57.3427 940.477 57.9271 937.271 58.7594L937.774 60.6952ZM947.536 58.9946C951.603 58.5697 954.891 58.1741 957.395 57.8076L957.105 55.8287C954.64 56.1895 951.382 56.5818 947.328 57.0054L947.536 58.9946ZM957.407 57.8058C959.933 57.4054 961.913 56.8022 963.219 55.9195L962.099 54.2623C961.163 54.8948 959.537 55.4431 957.093 55.8305L957.407 57.8058ZM963.219 55.9195C964.645 54.9556 965.341 53.5062 965.341 51.7273H963.341C963.341 52.918 962.915 53.711 962.099 54.2623L963.219 55.9195ZM965.341 51.7273V51.4545H963.341V51.7273H965.341ZM965.341 51.4545C965.341 48.3482 964.349 45.8202 962.269 44.017L960.959 45.5284C962.515 46.8768 963.341 48.8033 963.341 51.4545H965.341ZM962.275 44.0225C960.244 42.2329 957.43 41.4091 953.977 41.4091V43.4091C957.131 43.4091 959.407 44.161 960.952 45.5229L962.275 44.0225ZM953.977 41.4091C950.351 41.4091 947.345 42.213 945.059 43.9273L946.259 45.5273C948.095 44.1506 950.633 43.4091 953.977 43.4091V41.4091ZM945.067 43.9216C942.841 45.558 941.34 47.6472 940.608 50.1765L942.529 50.7326C943.13 48.6558 944.356 46.9269 946.251 45.5329L945.067 43.9216ZM941.649 49.4578L923.74 48.0033L923.578 49.9967L941.487 51.4513L941.649 49.4578ZM924.637 49.2095C925.513 45.1205 927.23 41.6091 929.78 38.6532L928.266 37.3468C925.482 40.5727 923.623 44.3946 922.681 48.7905L924.637 49.2095ZM929.783 38.6496C932.333 35.6648 935.632 33.361 939.709 31.748L938.973 29.8883C934.625 31.6087 931.046 34.0927 928.262 37.3504L929.783 38.6496ZM939.712 31.7467C943.814 30.1061 948.592 29.2727 954.068 29.2727V27.2727C948.392 27.2727 943.353 28.1363 938.97 29.8897L939.712 31.7467ZM954.068 29.2727C957.868 29.2727 961.497 29.7179 964.956 30.605L965.453 28.6677C961.822 27.7366 958.026 27.2727 954.068 27.2727V29.2727ZM964.958 30.6055C968.43 31.4882 971.485 32.851 974.135 34.6858L975.274 33.0414C972.409 31.0581 969.131 29.6027 965.451 28.6672L964.958 30.6055ZM974.14 34.6887C976.794 36.5065 978.883 38.8396 980.414 41.6992L982.177 40.7553C980.496 37.615 978.191 35.0389 975.27 33.0385L974.14 34.6887ZM980.416 41.703C981.927 44.4967 982.705 47.886 982.705 51.9091H984.705C984.705 47.6292 983.876 43.8973 982.175 40.7516L980.416 41.703ZM982.705 51.9091V99H984.705V51.9091H982.705ZM983.705 98H965.341V100H983.705V98ZM966.341 99V89.3182H964.341V99H966.341ZM965.341 88.3182H964.795V90.3182H965.341V88.3182ZM963.906 88.8611C962.843 90.9301 961.42 92.7564 959.632 94.3428L960.959 95.839C962.928 94.0921 964.506 92.0699 965.685 89.7753L963.906 88.8611ZM959.639 94.3368C957.865 95.8815 955.72 97.11 953.187 98.0126L953.858 99.8965C956.598 98.9203 958.968 97.573 960.952 95.845L959.639 94.3368ZM953.197 98.0092C950.687 98.8746 947.755 99.3182 944.386 99.3182V101.318C947.926 101.318 951.086 100.853 953.849 99.8999L953.197 98.0092ZM949.932 87.9545C952.914 87.9545 955.59 87.3669 957.934 86.1622L957.02 84.3833C955.001 85.421 952.647 85.9545 949.932 85.9545V87.9545ZM957.944 86.1571C960.267 84.9309 962.113 83.271 963.456 81.1758L961.772 80.0969C960.629 81.8805 959.051 83.3115 957.011 84.3883L957.944 86.1571ZM963.456 81.1758C964.808 79.0647 965.477 76.6781 965.477 74.0455H963.477C963.477 76.3219 962.904 78.3293 961.772 80.0969L963.456 81.1758ZM965.477 74.0455V66.6364H963.477V74.0455H965.477ZM963.932 65.7979C963.432 66.1234 962.693 66.4542 961.677 66.7733L962.277 68.6813C963.383 68.3337 964.311 67.9372 965.022 67.4748L963.932 65.7979ZM961.695 66.7679C960.695 67.0619 959.555 67.3436 958.272 67.6121L958.682 69.5697C960.005 69.2928 961.198 68.9987 962.259 68.6866L961.695 66.7679ZM958.294 67.6078C956.999 67.8488 955.703 68.0748 954.408 68.2857L954.729 70.2597C956.039 70.0464 957.35 69.8178 958.66 69.574L958.294 67.6078ZM954.43 68.2823C953.126 68.4643 951.943 68.6311 950.881 68.7828L951.164 70.7627C952.223 70.6113 953.404 70.4448 954.706 70.2631L954.43 68.2823ZM950.878 68.7833C948.539 69.1263 946.467 69.676 944.674 70.4445L945.462 72.2828C947.063 71.5967 948.961 71.0858 951.168 70.7621L950.878 68.7833ZM944.674 70.4445C942.847 71.2275 941.378 72.3103 940.316 73.7151L941.911 74.9213C942.728 73.8412 943.895 72.9543 945.462 72.2828L944.674 70.4445ZM940.323 73.7056C939.224 75.124 938.705 76.8663 938.705 78.8636H940.705C940.705 77.2246 941.125 75.9366 941.904 74.9308L940.323 73.7056ZM938.705 78.8636C938.705 81.7767 939.779 84.1108 941.978 85.7167L943.158 84.1015C941.539 82.9195 940.705 81.2233 940.705 78.8636H938.705ZM941.993 85.7271C944.139 87.2361 946.809 87.9545 949.932 87.9545V85.9545C947.116 85.9545 944.876 85.3094 943.143 84.0911L941.993 85.7271ZM998.727 99H997.727V100H998.727V99ZM998.727 29.1818V28.1818H997.727V29.1818H998.727ZM1017.5 29.1818H1018.5V28.1818H1017.5V29.1818ZM1017.5 41.3636H1016.5V42.3636H1017.5V41.3636ZM1018.23 41.3636V42.3636H1018.98L1019.19 41.6454L1018.23 41.3636ZM1024.64 31.5455L1025.23 32.3503L1025.24 32.3464L1024.64 31.5455ZM1038.14 28.3636L1038.24 27.3694L1038.24 27.3694L1038.14 28.3636ZM1041.09 28.8636H1042.09V28.0829L1041.33 27.8935L1041.09 28.8636ZM1041.09 46.0455L1040.8 47.0033L1042.09 47.3895V46.0455H1041.09ZM1025.27 46.8636L1025.75 47.7406L1025.76 47.7384L1025.27 46.8636ZM1020 51.9545L1019.14 51.4418L1019.14 51.4507L1020 51.9545ZM1018.09 99V100H1019.09V99H1018.09ZM999.727 99V29.1818H997.727V99H999.727ZM998.727 30.1818H1017.5V28.1818H998.727V30.1818ZM1016.5 29.1818V41.3636H1018.5V29.1818H1016.5ZM1017.5 42.3636H1018.23V40.3636H1017.5V42.3636ZM1019.19 41.6454C1020.41 37.4762 1022.44 34.4071 1025.23 32.3503L1024.04 30.7406C1020.83 33.108 1018.59 36.5844 1017.27 41.0818L1019.19 41.6454ZM1025.24 32.3464C1028.05 30.2391 1031.3 29.1818 1035 29.1818V27.1818C1030.89 27.1818 1027.22 28.3669 1024.04 30.7445L1025.24 32.3464ZM1035 29.1818C1035.93 29.1818 1036.94 29.2399 1038.03 29.3578L1038.24 27.3694C1037.09 27.245 1036.01 27.1818 1035 27.1818V29.1818ZM1038.03 29.3578C1039.12 29.4755 1040.05 29.6354 1040.85 29.8338L1041.33 27.8935C1040.43 27.6676 1039.4 27.4942 1038.24 27.3694L1038.03 29.3578ZM1040.09 28.8636V46.0455H1042.09V28.8636H1040.09ZM1041.38 45.0876C1040.39 44.7925 1039.08 44.5418 1037.45 44.3268L1037.19 46.3096C1038.77 46.5188 1039.97 46.7529 1040.8 47.0033L1041.38 45.0876ZM1037.45 44.3268C1035.81 44.1101 1034.29 44 1032.91 44V46C1034.19 46 1035.62 46.102 1037.19 46.3096L1037.45 44.3268ZM1032.91 44C1029.91 44 1027.19 44.6555 1024.79 45.9889L1025.76 47.7384C1027.84 46.5869 1030.21 46 1032.91 46V44ZM1024.79 45.9867C1022.42 47.285 1020.54 49.1083 1019.14 51.4418L1020.86 52.4673C1022.07 50.4372 1023.7 48.8665 1025.75 47.7406L1024.79 45.9867ZM1019.14 51.4507C1017.76 53.8042 1017.09 56.4975 1017.09 59.5H1019.09C1019.09 56.8055 1019.69 54.4685 1020.86 52.4584L1019.14 51.4507ZM1017.09 59.5V99H1019.09V59.5H1017.09ZM1018.09 98H998.727V100H1018.09V98ZM1061.12 96L1060.63 96.8686L1060.64 96.872L1061.12 96ZM1049.22 83.5455L1048.33 84.0046L1048.33 84.0066L1049.22 83.5455ZM1049.22 45.5L1048.33 45.0429L1048.33 45.0429L1049.22 45.5ZM1060.99 32.8182L1060.48 31.9589L1060.47 31.9602L1060.99 32.8182ZM1091.76 30.5L1091.41 31.4367L1091.42 31.4398L1091.76 30.5ZM1102.22 37.0909L1101.51 37.8016L1101.52 37.8052L1102.22 37.0909ZM1109.22 48.1818L1108.28 48.5322L1108.28 48.5343L1109.22 48.1818ZM1111.72 69.0455V70.0455H1112.72V69.0455H1111.72ZM1052.76 69.0455H1051.76V70.0455H1052.76V69.0455ZM1052.76 57.0455V56.0455H1051.76V57.0455H1052.76ZM1093.49 57.0455V58.0455H1094.49V57.0455H1093.49ZM1091.67 49.6364L1090.8 50.1272L1090.8 50.1272L1091.67 49.6364ZM1086.62 44.5909L1086.12 45.4538L1086.13 45.458L1086.13 45.4622L1086.62 44.5909ZM1071.4 44.7727L1071.91 45.6323L1071.91 45.6302L1071.4 44.7727ZM1066.12 50.1818L1066.99 50.6754L1067 50.6704L1066.12 50.1818ZM1064.17 57.6818L1063.17 57.6708V57.6818H1064.17ZM1066.08 78.0455L1065.19 78.497L1065.19 78.5055L1066.08 78.0455ZM1085.9 85L1085.58 84.0529L1085.58 84.0529L1085.9 85ZM1090.49 82.2727L1089.8 81.5486L1089.8 81.5486L1090.49 82.2727ZM1093.4 77.8182L1093.46 76.8204L1092.73 76.7716L1092.46 77.4635L1093.4 77.8182ZM1111.31 79L1112.29 79.2067L1112.52 78.0781L1111.37 78.0022L1111.31 79ZM1105.72 90.2727L1104.96 89.6132L1104.96 89.6137L1105.72 90.2727ZM1094.9 97.7273L1095.27 98.6558L1095.27 98.6544L1094.9 97.7273ZM1079.67 99.3636C1072.62 99.3636 1066.62 97.9373 1061.61 95.128L1060.64 96.872C1066 99.8809 1072.35 101.364 1079.67 101.364V99.3636ZM1061.62 95.1314C1056.64 92.2893 1052.8 88.2807 1050.1 83.0843L1048.33 84.0066C1051.2 89.5374 1055.31 93.8319 1060.63 96.8686L1061.62 95.1314ZM1050.1 83.0863C1047.4 77.8614 1046.03 71.6466 1046.03 64.4091H1044.03C1044.03 71.8989 1045.45 78.4416 1048.33 84.0046L1050.1 83.0863ZM1046.03 64.4091C1046.03 57.3581 1047.4 51.2169 1050.11 45.9571L1048.33 45.0429C1045.45 50.6316 1044.03 57.0964 1044.03 64.4091H1046.03ZM1050.11 45.9571C1052.81 40.693 1056.61 36.6071 1061.5 33.6761L1060.47 31.9602C1055.25 35.0898 1051.2 39.4585 1048.33 45.0429L1050.11 45.9571ZM1061.5 33.6775C1066.41 30.7528 1072.2 29.2727 1078.9 29.2727V27.2727C1071.9 27.2727 1065.75 28.8229 1060.48 31.9589L1061.5 33.6775ZM1078.9 29.2727C1083.39 29.2727 1087.56 29.9972 1091.41 31.4366L1092.11 29.5634C1088.02 28.0331 1083.61 27.2727 1078.9 27.2727V29.2727ZM1091.42 31.4398C1095.29 32.8459 1098.65 34.9657 1101.51 37.8016L1102.92 36.3802C1099.85 33.3373 1096.24 31.0631 1092.1 29.5602L1091.42 31.4398ZM1101.52 37.8052C1104.4 40.6293 1106.66 44.1966 1108.28 48.5322L1110.15 47.8314C1108.44 43.2579 1106.03 39.4313 1102.92 36.3766L1101.52 37.8052ZM1108.28 48.5343C1109.9 52.8212 1110.72 57.8787 1110.72 63.7273H1112.72C1112.72 57.6971 1111.87 52.391 1110.15 47.8293L1108.28 48.5343ZM1110.72 63.7273V69.0455H1112.72V63.7273H1110.72ZM1111.72 68.0455H1052.76V70.0455H1111.72V68.0455ZM1053.76 69.0455V57.0455H1051.76V69.0455H1053.76ZM1052.76 58.0455H1093.49V56.0455H1052.76V58.0455ZM1094.49 57.0455C1094.49 54.1082 1093.85 51.4654 1092.54 49.1455L1090.8 50.1272C1091.92 52.1104 1092.49 54.407 1092.49 57.0455H1094.49ZM1092.54 49.1455C1091.24 46.8348 1089.43 45.0215 1087.12 43.7197L1086.13 45.4622C1088.13 46.5846 1089.68 48.1349 1090.8 50.1272L1092.54 49.1455ZM1087.13 43.728C1084.83 42.3833 1082.19 41.7273 1079.22 41.7273V43.7273C1081.88 43.7273 1084.17 44.3136 1086.12 45.4538L1087.13 43.728ZM1079.22 41.7273C1076.12 41.7273 1073.33 42.4484 1070.88 43.9152L1071.91 45.6302C1074.01 44.3698 1076.44 43.7273 1079.22 43.7273V41.7273ZM1070.89 43.9132C1068.49 45.3361 1066.61 47.267 1065.25 49.6932L1067 50.6704C1068.18 48.5512 1069.82 46.876 1071.91 45.6323L1070.89 43.9132ZM1065.26 49.6882C1063.89 52.0881 1063.2 54.7561 1063.17 57.6708L1065.17 57.6928C1065.2 55.0924 1065.81 52.7604 1066.99 50.6754L1065.26 49.6882ZM1063.17 57.6818V69.0909H1065.17V57.6818H1063.17ZM1063.17 69.0909C1063.17 72.6675 1063.83 75.8138 1065.19 78.497L1066.97 77.5939C1065.78 75.2468 1065.17 72.4234 1065.17 69.0909H1063.17ZM1065.19 78.5055C1066.58 81.1835 1068.54 83.2669 1071.08 84.7298L1072.08 82.9975C1069.89 81.7331 1068.19 79.9377 1066.97 77.5854L1065.19 78.5055ZM1071.08 84.7298C1073.62 86.1963 1076.6 86.9091 1079.99 86.9091V84.9091C1076.89 84.9091 1074.26 84.2582 1072.08 82.9975L1071.08 84.7298ZM1079.99 86.9091C1082.23 86.9091 1084.31 86.5927 1086.22 85.9471L1085.58 84.0529C1083.91 84.6194 1082.05 84.9091 1079.99 84.9091V86.9091ZM1086.22 85.9471C1088.13 85.2979 1089.79 84.3165 1091.18 82.9969L1089.8 81.5486C1088.64 82.6532 1087.24 83.49 1085.58 84.0529L1086.22 85.9471ZM1091.18 82.9969C1092.57 81.6744 1093.62 80.0605 1094.33 78.1728L1092.46 77.4635C1091.85 79.0911 1090.96 80.4468 1089.8 81.5486L1091.18 82.9969ZM1093.33 78.816L1111.24 79.9978L1111.37 78.0022L1093.46 76.8204L1093.33 78.816ZM1110.33 78.7933C1109.45 82.9336 1107.67 86.534 1104.96 89.6132L1106.47 90.9322C1109.4 87.5873 1111.34 83.6725 1112.29 79.2067L1110.33 78.7933ZM1104.96 89.6137C1102.29 92.6635 1098.82 95.0633 1094.52 96.8001L1095.27 98.6544C1099.82 96.8155 1103.56 94.2455 1106.47 90.9317L1104.96 89.6137ZM1094.53 96.7988C1090.27 98.5001 1085.33 99.3636 1079.67 99.3636V101.364C1085.53 101.364 1090.73 100.47 1095.27 98.6557L1094.53 96.7988Z" fill="black" fill-opacity="0.48"/>
</g>
<defs>
<filter id="filter0_d_10_43" x="0.465942" y="0.590881" width="1115.25" height="134.045" filterUnits="userSpaceOnUse" color-interpolation-filters="sRGB">
<feFlood flood-opacity="0" result="BackgroundImageFix"/>
<feColorMatrix in="SourceAlpha" type="matrix" values="0 0 0 0 0 0 0 0 0 0 0 0 0 0 0 0 0 0 127 0" result="hardAlpha"/>
<feOffset dy="4"/>
<feGaussianBlur stdDeviation="2"/>
<feComposite in2="hardAlpha" operator="out"/>
<feColorMatrix type="matrix" values="0 0 0 0 0 0 0 0 0 1 0 0 0 0 0.94 0 0 0 1 0"/>
<feBlend mode="normal" in2="BackgroundImageFix" result="effect1_dropShadow_10_43"/>
<feBlend mode="normal" in="SourceGraphic" in2="effect1_dropShadow_10_43" result="shape"/>
</filter>
</defs>
</svg>
